<?xml version="1.0" encoding="UTF-8" standalone="no"?>
<!-- Created with Inkscape (http://www.inkscape.org/) -->

<svg
   width="1080"
   height="1080"
   viewBox="0 0 1080 1080"
   version="1.1"
   id="svg1"
   inkscape:version="1.4.2 (ebf0e940, 2025-05-08)"
   sodipodi:docname="one-venue.svg"
   xmlns:inkscape="http://www.inkscape.org/namespaces/inkscape"
   xmlns:sodipodi="http://sodipodi.sourceforge.net/DTD/sodipodi-0.dtd"
   xmlns:xlink="http://www.w3.org/1999/xlink"
   xmlns="http://www.w3.org/2000/svg"
   xmlns:svg="http://www.w3.org/2000/svg">
  <sodipodi:namedview
     id="namedview1"
     pagecolor="#ffffff"
     bordercolor="#111111"
     borderopacity="1"
     inkscape:showpageshadow="0"
     inkscape:pageopacity="0"
     inkscape:pagecheckerboard="1"
     inkscape:deskcolor="#d1d1d1"
     inkscape:document-units="px"
     inkscape:zoom="3.841002"
     inkscape:cx="703.3321"
     inkscape:cy="1009.372"
     inkscape:window-width="1512"
     inkscape:window-height="1035"
     inkscape:window-x="1296"
     inkscape:window-y="658"
     inkscape:window-maximized="0"
     inkscape:current-layer="layer2"
     showguides="true"
     showgrid="false">
    <sodipodi:guide
       position="40.777653,933.50623"
       orientation="1,0"
       id="guide4"
       inkscape:locked="false" />
    <sodipodi:guide
       position="19.218137,1039.9351"
       orientation="0,-1"
       id="guide5"
       inkscape:locked="false" />
    <sodipodi:guide
       position="219.77213,876.17883"
       orientation="1,0"
       id="guide6"
       inkscape:locked="false" />
    <sodipodi:guide
       position="240.00349,1019.0461"
       orientation="1,0"
       id="guide7"
       inkscape:locked="false" />
    <sodipodi:guide
       position="227.60212,876.18133"
       orientation="0,-1"
       id="guide8"
       inkscape:locked="false" />
    <sodipodi:guide
       position="254.45323,789.63113"
       orientation="0,-1"
       id="guide9"
       inkscape:locked="false" />
    <sodipodi:guide
       position="540.03003,1062.4745"
       orientation="1,0"
       id="guide10"
       inkscape:locked="false" />
  </sodipodi:namedview>
  <defs
     id="defs1">
    <pattern
       inkscape:collect="always"
       xlink:href="#pattern6-7"
       preserveAspectRatio="xMidYMid"
       id="pattern7"
       patternTransform="matrix(0.2389014,0,0,0.2389014,228.0576,249.68718)" />
    <pattern
       patternUnits="userSpaceOnUse"
       width="29"
       height="20"
       patternTransform="translate(190,350)"
       preserveAspectRatio="xMidYMid"
       style="fill:#010000"
       id="pattern6-7"
       inkscape:label=""
       inkscape:collect="always"
       inkscape:isstock="true">
      <path
         style="fill:none;stroke:#010000;stroke-width:10;stroke-linecap:butt;stroke-dasharray:none;paint-order:stroke markers fill;stop-color:#010000"
         d="M 0,5 C 19,5 10,15 29,15"
         id="path4-2"
         sodipodi:nodetypes="cc" />
    </pattern>
    <linearGradient
       id="linearGradient3"
       inkscape:collect="always">
      <stop
         style="stop-color:#010000;stop-opacity:1;"
         offset="0"
         id="stop3" />
      <stop
         style="stop-color:#0000fe;stop-opacity:1"
         offset="1"
         id="stop4" />
    </linearGradient>
    <linearGradient
       inkscape:collect="always"
       xlink:href="#linearGradient3"
       id="linearGradient4"
       x1="540"
       y1="0"
       x2="540"
       y2="1080"
       gradientUnits="userSpaceOnUse" />
  </defs>
  <g
     inkscape:groupmode="layer"
     id="layer2"
     inkscape:label="BACKGROUND"
     style="display:inline">
    <rect
       style="fill:url(#linearGradient4);fill-opacity:1"
       id="rect2"
       width="1080"
       height="1080"
       x="0"
       y="0" />
  </g>
  <g
     inkscape:label="Layer 1"
     inkscape:groupmode="layer"
     id="layer1"
     style="display:inline">
    <text
       xml:space="preserve"
       style="font-size:58.6667px;text-align:start;writing-mode:lr-tb;direction:ltr;text-anchor:start;fill:#00fe00;stroke-width:0.525518"
       x="529.71753"
       y="122.11295"
       id="text1"
       inkscape:label="HEADER"><tspan
         sodipodi:role="line"
         id="tspan1"
         x="540.03003"
         y="122.11295"
         style="font-size:58.6667px;text-align:center;text-anchor:middle;stroke-width:0.525518">Visited &lt;V1&gt; &lt;Tv1&gt; times </tspan></text>
  </g>
  <g
     inkscape:groupmode="layer"
     id="layer3"
     inkscape:label="BAND1">
    <rect
       style="display:inline;fill:none;stroke:#ff0808;stroke-width:2.68048;stroke-linecap:butt;stroke-linejoin:miter;stroke-dasharray:none;stroke-opacity:1"
       id="rect1"
       width="464.01416"
       height="445.16995"
       x="42.117893"
       y="203.96307"
       inkscape:label="BAND1-IMG" />
    <text
       xml:space="preserve"
       style="font-size:45.8691px;text-align:start;writing-mode:lr-tb;direction:ltr;text-anchor:start;display:inline;fill:none;stroke:url(#pattern7);stroke-width:0.247024;stroke-linecap:butt;stroke-linejoin:miter;stroke-dasharray:none;stroke-opacity:1"
       x="240.00349"
       y="203.81866"
       id="text7"
       inkscape:label="BAND1-NAME"><tspan
         sodipodi:role="line"
         id="tspan7"
         x="240.00349"
         y="203.81866"
         style="fill:#00fe00;stroke:#ff0808;stroke-width:0.247024;stroke-opacity:0" /></text>
    <text
       xml:space="preserve"
       style="font-size:37.3333px;text-align:start;writing-mode:lr-tb;direction:ltr;text-anchor:start;display:inline;fill:#00fe00;stroke:#ff0808;stroke-width:1.034;stroke-linecap:butt;stroke-linejoin:miter;stroke-dasharray:none;stroke-opacity:0"
       x="540.54706"
       y="232.70023"
       id="text9"
       inkscape:label="BAND1-STATS"><tspan
         sodipodi:role="line"
         x="540.54706"
         y="232.70023"
         id="tspan2"
         style="font-size:37.3333px">Concerts seen: &lt;Tv1&gt; </tspan><tspan
         sodipodi:role="line"
         x="540.54706"
         y="279.36685"
         id="tspan3"
         style="font-size:37.3333px">Total Sets: &lt;Ts1&gt;</tspan><tspan
         sodipodi:role="line"
         x="540.54706"
         y="326.03348"
         style="font-size:37.3333px"
         id="tspan15" /><tspan
         sodipodi:role="line"
         x="540.54706"
         y="372.7001"
         id="tspan4"
         dx="0 0 0 0 0 0 0 0 0 0 0 0 0 0 0 0 2.041111"
         style="font-size:37.3333px">Total cost: &lt;Tc1&gt;€</tspan><tspan
         sodipodi:role="line"
         x="540.54706"
         y="419.36673"
         dx="0 0 0 0 0 0 0 0 0 0 0 0 0 0 0 0 0 0 0 0 0 0 0 0 0 0 0 0 0 0 0 0 0 2.041111"
         style="font-size:37.3333px"
         id="tspan9">Mean cost: &lt;Mc1&gt;€</tspan><tspan
         sodipodi:role="line"
         x="540.54706"
         y="466.03336"
         dx="0 0 0 0 0 0 0 0 0 0 0 0 0 0 0 0 0 0 0 0 0 0 0 0 0 0 0 0 0 0 0 2.041111"
         style="font-size:37.3333px"
         id="tspan10" /><tspan
         sodipodi:role="line"
         x="540.54706"
         y="512.70001"
         style="font-size:37.3333px"
         id="tspan16">Most expensive:</tspan><tspan
         sodipodi:role="line"
         x="540.54706"
         y="559.36664"
         dx="0 0 0 0 0 0 0 0 0 0 0 0 0 0 0 0 0 0 0 0 0 0 0 0 0 0 0 0 0 0 2.041111"
         style="font-size:37.3333px"
         id="tspan6">&lt;Ec1&gt;€ (&lt;Eb1&gt;)</tspan><tspan
         sodipodi:role="line"
         x="540.54706"
         y="606.03326"
         style="font-size:37.3333px"
         id="tspan17">Cheapest:</tspan><tspan
         sodipodi:role="line"
         x="540.54706"
         y="652.69989"
         dx="0 0 0 0 0 0 0 0 0 0 0 0 0 0 0 0 0 0 0 0 0 0 0 0 0 0 0 0 0 0 0 0 0 0 0 0 0 0 0 0 0 0 0 0 0 0 0 0 0 0 0 2.041111"
         style="font-size:37.3333px"
         id="tspan8">&lt;Cc1&gt;€ (&lt;Cb1&gt;)</tspan><tspan
         sodipodi:role="line"
         x="540.54706"
         y="699.36652"
         style="font-size:37.3333px"
         id="tspan18"
         dx="0 0 0 0 0 0 0 0 0 0 0 0 0 0 0 0 0 0 0 0 0 0 0 0 0 0 0 0 0 0 0 0 0 0 0 0 0 0 0 0 0 0 0 0 0 0 0 0 0 0 0 0 2.041111" /><tspan
         sodipodi:role="line"
         x="540.54706"
         y="746.03314"
         id="tspan5"
         style="font-size:37.3333px"> </tspan></text>
    <text
       xml:space="preserve"
       style="font-size:53.3333px;text-align:center;writing-mode:lr-tb;direction:ltr;text-anchor:middle;fill:#ff00ff;stroke:#ff0808;stroke-width:1.034;stroke-opacity:0"
       x="540.03003"
       y="834.97162"
       id="text14"><tspan
         sodipodi:role="line"
         id="tspan14"
         x="540.03003"
         y="834.97162"
         style="font-size:53.3333px;fill:#00fe00">&lt;Ad1&gt;</tspan></text>
    <text
       xml:space="preserve"
       style="font-size:20.3891px;text-align:center;writing-mode:lr-tb;direction:ltr;text-anchor:middle;display:inline;fill:#000000;fill-opacity:0.381625;stroke:#ff0808;stroke-width:1.31765;stroke-opacity:0"
       x="872.05652"
       y="1072.8964"
       id="text17-0"><tspan
         sodipodi:role="line"
         id="tspan17-3"
         x="872.05652"
         y="1072.8964"
         style="font-size:20.3891px;fill:#000000;fill-opacity:0.381625;stroke-width:1.31765"
         dx="0 0 0 0 0 0 0 0 0 0 0 0 0 0 0 0 0 0 0 0 0 0 0 0 1.4015155 0 3.093632 0 0 0 0 0 1.7782652"
         dy="0 0 0 0 0 0 0 0 0 0 0 0 0 0 0 0 0 0 0 0 0 0 0 0 0 0 0 0 0 0 0 -2.9673092 0 2.9673092">Wrapped tool created by   cyber__chris</tspan></text>
    <path
       d="m 929.69842,1056.8142 c -1.0821,0.051 -1.821,0.2239 -2.46706,0.4776 -0.6685,0.2607 -1.2352,0.6103 -1.799,1.1762 -0.5638,0.5658 -0.911,1.1328 -1.1697,1.8026 -0.2504,0.6474 -0.42,1.3869 -0.4678,2.4693 -0.048,1.0827 -0.059,1.4308 -0.053,4.1926 0.01,2.7617 0.018,3.1078 0.07,4.1929 0.052,1.0818 0.2237,1.8205 0.4775,2.4666 0.261,0.6686 0.6103,1.235 1.1763,1.799 0.566,0.564 1.1327,0.9103 1.8039,1.1696 0.64676,0.2498 1.38656,0.4204 2.46906,0.4679 1.0824,0.047 1.4308,0.059 4.1917,0.053 2.7609,0 3.1085,-0.018 4.1933,-0.068 1.0847,-0.051 1.8195,-0.2246 2.4659,-0.4771 0.6686,-0.262 1.2354,-0.6105 1.7991,-1.1767 0.5636,-0.5663 0.9106,-1.1338 1.1691,-1.8036 0.2506,-0.647 0.4208,-1.3868 0.4678,-2.4683 0.047,-1.0857 0.059,-1.4322 0.053,-4.1934 -0.01,-2.7614 -0.018,-3.1075 -0.069,-4.192 -0.052,-1.0845 -0.2237,-1.821 -0.4774,-2.4677 -0.2613,-0.6685 -0.6101,-1.2345 -1.176,-1.7989 -0.5658,-0.5645 -1.1337,-0.9112 -1.8035,-1.1692 -0.6472,-0.2503 -1.3866,-0.421 -2.4691,-0.4679 -1.0824,-0.046 -1.4308,-0.059 -4.1928,-0.052 -2.7619,0 -3.1076,0.018 -4.1923,0.069 m 0.1187,18.3846 c -0.9916,-0.042 -1.53,-0.2078 -1.8888,-0.3456 -0.47506,-0.1831 -0.81356,-0.4044 -1.17106,-0.7585 -0.3576,-0.3543 -0.5773,-0.694 -0.7628,-1.168 -0.1393,-0.3589 -0.3071,-0.8965 -0.3535,-1.8883 -0.05,-1.0715 -0.061,-1.3931 -0.067,-4.1082 -0.01,-2.7154 0.01,-3.0367 0.052,-4.1088 0.042,-0.9908 0.2081,-1.5296 0.3458,-1.8884 0.1831,-0.4757 0.4035,-0.8135 0.7585,-1.171 0.3549,-0.3574 0.6935,-0.5772 1.16806,-0.7627 0.3584,-0.1412 0.8961,-0.3065 1.8872,-0.3537 1.0726,-0.051 1.394,-0.062 4.1087,-0.068 2.7147,0 3.0369,0 4.1098,0.051 0.9908,0.043 1.5299,0.2071 1.8881,0.3456 0.4754,0.1832 0.8136,0.4029 1.171,0.7585 0.3574,0.3555 0.5777,0.6931 0.7631,1.1685 0.1402,0.3576 0.3065,0.8951 0.3533,1.8868 0.051,1.0725 0.063,1.3939 0.067,4.1088 0.01,2.7143 -0.01,3.0367 -0.052,4.1084 -0.043,0.9916 -0.2076,1.5301 -0.3457,1.8892 -0.1831,0.475 -0.4038,0.8139 -0.7589,1.1709 -0.3551,0.3569 -0.6934,0.5771 -1.1681,0.7628 -0.358,0.1413 -0.8964,0.3065 -1.8867,0.3534 -1.0725,0.05 -1.3939,0.062 -4.1096,0.068 -2.7158,0 -3.0362,0 -4.1087,-0.051 m 8.2905,-13.7213 a 1.2203777,1.2203777 0 1 0 1.2179,-1.2225 1.2203777,1.2203777 0 0 0 -1.2179,1.2225 m -9.4193,5.4454 c 0.01,2.8842 2.348,5.2171 5.2316,5.2116 2.8835,0 5.2179,-2.3478 5.2124,-5.232 -0.01,-2.884 -2.3485,-5.2173 -5.2324,-5.2116 -2.8839,0 -5.2171,2.3483 -5.2116,5.232 m 1.8318,0 a 3.3900059,3.3900059 0 1 1 3.3967,3.3835 3.3895991,3.3895991 0 0 1 -3.3967,-3.3835"
       id="path1"
       style="display:inline;fill:#000000;fill-opacity:0.381625;stroke-width:0.0203396" />
  </g>
</svg>
