<?xml version="1.0" encoding="UTF-8" standalone="no"?>
<!-- Created with Inkscape (http://www.inkscape.org/) -->

<svg
   width="1080"
   height="1080"
   viewBox="0 0 1080 1080"
   version="1.1"
   id="svg1"
   inkscape:version="1.4.2 (ebf0e940, 2025-05-08)"
   sodipodi:docname="top4bands.svg"
   xmlns:inkscape="http://www.inkscape.org/namespaces/inkscape"
   xmlns:sodipodi="http://sodipodi.sourceforge.net/DTD/sodipodi-0.dtd"
   xmlns:xlink="http://www.w3.org/1999/xlink"
   xmlns="http://www.w3.org/2000/svg"
   xmlns:svg="http://www.w3.org/2000/svg">
  <sodipodi:namedview
     id="namedview1"
     pagecolor="#ffffff"
     bordercolor="#111111"
     borderopacity="1"
     inkscape:showpageshadow="0"
     inkscape:pageopacity="0"
     inkscape:pagecheckerboard="1"
     inkscape:deskcolor="#d1d1d1"
     inkscape:document-units="px"
     inkscape:zoom="4.3399187"
     inkscape:cx="663.49169"
     inkscape:cy="1033.1991"
     inkscape:window-width="1216"
     inkscape:window-height="1051"
     inkscape:window-x="1407"
     inkscape:window-y="746"
     inkscape:window-maximized="0"
     inkscape:current-layer="layer3"
     showguides="true"
     showgrid="false">
    <sodipodi:guide
       position="40.777653,933.50623"
       orientation="1,0"
       id="guide4"
       inkscape:locked="false" />
    <sodipodi:guide
       position="19.218137,1039.9351"
       orientation="0,-1"
       id="guide5"
       inkscape:locked="false" />
    <sodipodi:guide
       position="219.77213,876.17883"
       orientation="1,0"
       id="guide6"
       inkscape:locked="false" />
    <sodipodi:guide
       position="240.00349,1019.0461"
       orientation="1,0"
       id="guide7"
       inkscape:locked="false" />
    <sodipodi:guide
       position="227.60212,876.18133"
       orientation="0,-1"
       id="guide8"
       inkscape:locked="false" />
    <sodipodi:guide
       position="254.45323,789.63113"
       orientation="0,-1"
       id="guide9"
       inkscape:locked="false" />
  </sodipodi:namedview>
  <defs
     id="defs1">
    <pattern
       inkscape:collect="always"
       xlink:href="#pattern6-7"
       preserveAspectRatio="xMidYMid"
       id="pattern7"
       patternTransform="matrix(0.2389014,0,0,0.2389014,228.0576,249.68718)" />
    <pattern
       patternUnits="userSpaceOnUse"
       width="29"
       height="20"
       patternTransform="translate(190,350)"
       preserveAspectRatio="xMidYMid"
       style="fill:#010000"
       id="pattern6-7"
       inkscape:label=""
       inkscape:collect="always"
       inkscape:isstock="true">
      <path
         style="fill:none;stroke:#010000;stroke-width:10;stroke-linecap:butt;stroke-dasharray:none;paint-order:stroke markers fill;stop-color:#010000"
         d="M 0,5 C 19,5 10,15 29,15"
         id="path4-2"
         sodipodi:nodetypes="cc" />
    </pattern>
    <linearGradient
       id="linearGradient3"
       inkscape:collect="always">
      <stop
         style="stop-color:#010000;stop-opacity:1;"
         offset="0"
         id="stop3" />
      <stop
         style="stop-color:#0000fe;stop-opacity:1"
         offset="1"
         id="stop4" />
    </linearGradient>
    <linearGradient
       inkscape:collect="always"
       xlink:href="#linearGradient3"
       id="linearGradient4"
       x1="540"
       y1="0"
       x2="540"
       y2="1080"
       gradientUnits="userSpaceOnUse" />
    <pattern
       inkscape:collect="always"
       xlink:href="#pattern6-7-2"
       preserveAspectRatio="xMidYMid"
       id="pattern7-1"
       patternTransform="matrix(0.2389014,0,0,0.2389014,295.31825,463.29573)" />
    <pattern
       patternUnits="userSpaceOnUse"
       width="29"
       height="20"
       patternTransform="translate(190,350)"
       preserveAspectRatio="xMidYMid"
       style="fill:#010000"
       id="pattern6-7-2"
       inkscape:label=""
       inkscape:collect="always"
       inkscape:isstock="true">
      <path
         style="fill:none;stroke:#010000;stroke-width:10;stroke-linecap:butt;stroke-dasharray:none;paint-order:stroke markers fill;stop-color:#010000"
         d="M 0,5 C 19,5 10,15 29,15"
         id="path4-2-6"
         sodipodi:nodetypes="cc" />
    </pattern>
    <pattern
       inkscape:collect="always"
       xlink:href="#pattern6-7-2-1"
       preserveAspectRatio="xMidYMid"
       id="pattern7-1-4"
       patternTransform="matrix(0.2389014,0,0,0.2389014,295.31825,463.29573)" />
    <pattern
       patternUnits="userSpaceOnUse"
       width="29"
       height="20"
       patternTransform="translate(190,350)"
       preserveAspectRatio="xMidYMid"
       style="fill:#010000"
       id="pattern6-7-2-1"
       inkscape:label=""
       inkscape:collect="always"
       inkscape:isstock="true">
      <path
         style="fill:none;stroke:#010000;stroke-width:10;stroke-linecap:butt;stroke-dasharray:none;paint-order:stroke markers fill;stop-color:#010000"
         d="M 0,5 C 19,5 10,15 29,15"
         id="path4-2-6-8"
         sodipodi:nodetypes="cc" />
    </pattern>
    <pattern
       inkscape:collect="always"
       xlink:href="#pattern6-7-2-1-3"
       preserveAspectRatio="xMidYMid"
       id="pattern7-1-4-5"
       patternTransform="matrix(0.2389014,0,0,0.2389014,295.31825,463.29573)" />
    <pattern
       patternUnits="userSpaceOnUse"
       width="29"
       height="20"
       patternTransform="translate(190,350)"
       preserveAspectRatio="xMidYMid"
       style="fill:#010000"
       id="pattern6-7-2-1-3"
       inkscape:label=""
       inkscape:collect="always"
       inkscape:isstock="true">
      <path
         style="fill:none;stroke:#010000;stroke-width:10;stroke-linecap:butt;stroke-dasharray:none;paint-order:stroke markers fill;stop-color:#010000"
         d="M 0,5 C 19,5 10,15 29,15"
         id="path4-2-6-8-7"
         sodipodi:nodetypes="cc" />
    </pattern>
  </defs>
  <g
     inkscape:groupmode="layer"
     id="layer2"
     inkscape:label="BACKGROUND"
     style="display:inline">
    <rect
       style="fill:url(#linearGradient4);fill-opacity:1"
       id="rect2"
       width="1080"
       height="1080"
       x="0"
       y="0" />
  </g>
  <g
     inkscape:groupmode="layer"
     id="layer3-5-6-6"
     inkscape:label="BAND4"
     transform="translate(-67.777664,527.37558)"
     style="display:inline">
    <rect
       style="display:inline;fill:none;stroke:#ff0808;stroke-width:1.034;stroke-linecap:butt;stroke-linejoin:miter;stroke-dasharray:none;stroke-opacity:1"
       id="rect1-4-0-3"
       width="178.99448"
       height="171.72528"
       x="108.03831"
       y="331.56708"
       inkscape:label="BAND4-IMG" />
    <text
       xml:space="preserve"
       style="font-size:45.8691px;text-align:start;writing-mode:lr-tb;direction:ltr;text-anchor:start;display:inline;fill:none;stroke:url(#pattern7-1-4-5);stroke-width:0.247024;stroke-linecap:butt;stroke-linejoin:miter;stroke-dasharray:none;stroke-opacity:1"
       x="307.26416"
       y="417.42722"
       id="text7-1-3-1"
       inkscape:label="BAND2-NAME"><tspan
         sodipodi:role="line"
         id="tspan7-7-9-5"
         x="307.26416"
         y="417.42722"
         style="fill:#00fe00;stroke:#ff0808;stroke-width:0.247024;stroke-opacity:0">&lt;B4&gt;</tspan></text>
    <text
       xml:space="preserve"
       style="font-size:26.6667px;text-align:start;writing-mode:lr-tb;direction:ltr;text-anchor:start;display:inline;fill:#00fe00;stroke:#ff0808;stroke-width:1.034;stroke-linecap:butt;stroke-linejoin:miter;stroke-dasharray:none;stroke-opacity:0"
       x="306.28375"
       y="465.30933"
       id="text9-1-4-8"
       inkscape:label="BAND2-STATS"><tspan
         sodipodi:role="line"
         id="tspan9-3-9-0"
         x="306.28375"
         y="465.30933"
         dx="0 0 0 0 0 0 0 0 0 0 0 0 0 0 7.5929303">Sets: &lt;S4&gt;x, Headline Shows: &lt;H4&gt;x,</tspan><tspan
         sodipodi:role="line"
         x="306.28375"
         y="498.6427"
         id="tspan10-4-6-9">Cities: &lt;Ci4&gt;x, Counties: &lt;Co4&gt;x, Total Cost: &lt;Tc4&gt;€ </tspan></text>
  </g>
  <g
     inkscape:groupmode="layer"
     id="layer3-5-6"
     inkscape:label="BAND3"
     transform="translate(-67.260651,280.72552)"
     style="display:inline">
    <rect
       style="display:inline;fill:none;stroke:#ff0808;stroke-width:1.034;stroke-linecap:butt;stroke-linejoin:miter;stroke-dasharray:none;stroke-opacity:1"
       id="rect1-4-0"
       width="178.99448"
       height="171.72528"
       x="108.03831"
       y="331.56708"
       inkscape:label="BAND2-IMG" />
    <text
       xml:space="preserve"
       style="font-size:45.8691px;text-align:start;writing-mode:lr-tb;direction:ltr;text-anchor:start;display:inline;fill:none;stroke:url(#pattern7-1-4);stroke-width:0.247024;stroke-linecap:butt;stroke-linejoin:miter;stroke-dasharray:none;stroke-opacity:1"
       x="307.26416"
       y="417.42722"
       id="text7-1-3"
       inkscape:label="BAND2-NAME"><tspan
         sodipodi:role="line"
         id="tspan7-7-9"
         x="307.26416"
         y="417.42722"
         style="fill:#00fe00;stroke:#ff0808;stroke-width:0.247024;stroke-opacity:0">&lt;B3&gt;</tspan></text>
    <text
       xml:space="preserve"
       style="font-size:26.6667px;text-align:start;writing-mode:lr-tb;direction:ltr;text-anchor:start;display:inline;fill:#00fe00;stroke:#ff0808;stroke-width:1.034;stroke-linecap:butt;stroke-linejoin:miter;stroke-dasharray:none;stroke-opacity:0"
       x="306.28375"
       y="465.30933"
       id="text9-1-4"
       inkscape:label="BAND2-STATS"><tspan
         sodipodi:role="line"
         id="tspan9-3-9"
         x="306.28375"
         y="465.30933">Sets: &lt;S3&gt;x, Headline Shows: &lt;H3&gt;x,</tspan><tspan
         sodipodi:role="line"
         x="306.28375"
         y="498.6427"
         id="tspan10-4-6">Cities: &lt;Ci3&gt;x, Counties: &lt;Co3&gt;x, Total Cost: &lt;Tc3&gt;€ </tspan></text>
  </g>
  <g
     inkscape:groupmode="layer"
     id="layer3-5"
     inkscape:label="BAND2"
     transform="translate(-67.260653,33.55847)"
     style="display:inline">
    <rect
       style="display:inline;fill:none;stroke:#ff0808;stroke-width:1.034;stroke-linecap:butt;stroke-linejoin:miter;stroke-dasharray:none;stroke-opacity:1"
       id="rect1-4"
       width="178.99448"
       height="171.72528"
       x="108.03831"
       y="331.56708"
       inkscape:label="BAND2-IMG" />
    <text
       xml:space="preserve"
       style="font-size:45.8691px;text-align:start;writing-mode:lr-tb;direction:ltr;text-anchor:start;display:inline;fill:none;stroke:url(#pattern7-1);stroke-width:0.247024;stroke-linecap:butt;stroke-linejoin:miter;stroke-dasharray:none;stroke-opacity:1"
       x="307.26416"
       y="417.42722"
       id="text7-1"
       inkscape:label="BAND2-NAME"><tspan
         sodipodi:role="line"
         id="tspan7-7"
         x="307.26416"
         y="417.42722"
         style="fill:#00fe00;stroke:#ff0808;stroke-width:0.247024;stroke-opacity:0">&lt;B2&gt;</tspan></text>
    <text
       xml:space="preserve"
       style="font-size:26.6667px;text-align:start;writing-mode:lr-tb;direction:ltr;text-anchor:start;display:inline;fill:#00fe00;stroke:#ff0808;stroke-width:1.034;stroke-linecap:butt;stroke-linejoin:miter;stroke-dasharray:none;stroke-opacity:0"
       x="306.28375"
       y="465.30933"
       id="text9-1"
       inkscape:label="BAND2-STATS"><tspan
         sodipodi:role="line"
         id="tspan9-3"
         x="306.28375"
         y="465.30933">Sets: &lt;S2&gt;x, Headline Shows: &lt;H2&gt;x,</tspan><tspan
         sodipodi:role="line"
         x="306.28375"
         y="498.6427"
         id="tspan10-4">Cities: &lt;Ci2&gt;x, Counties: &lt;Co2&gt;x, Total Cost: &lt;Tc2&gt;€ </tspan></text>
  </g>
  <g
     inkscape:label="Layer 1"
     inkscape:groupmode="layer"
     id="layer1"
     style="display:inline">
    <text
       xml:space="preserve"
       style="font-size:50.4498px;text-align:start;writing-mode:lr-tb;direction:ltr;text-anchor:start;fill:#00fe00;stroke-width:0.525518"
       x="36.392857"
       y="78.641258"
       id="text1"
       inkscape:label="HEADER"><tspan
         sodipodi:role="line"
         id="tspan1"
         x="36.392857"
         y="78.641258"
         style="font-size:50.4498px;text-align:start;text-anchor:start;stroke-width:0.525518">&lt;USER&gt;'s most seen Bands of &lt;YEAR&gt;</tspan></text>
    <rect
       style="display:inline;fill:none;stroke:#ff0808;stroke-width:1.034;stroke-linecap:butt;stroke-linejoin:miter;stroke-dasharray:none;stroke-opacity:1"
       id="rect1-5"
       width="178.99448"
       height="171.72528"
       x="40.777653"
       y="365.12555"
       inkscape:label="BAND2" />
  </g>
  <g
     inkscape:groupmode="layer"
     id="layer3"
     inkscape:label="BAND1">
    <rect
       style="display:inline;fill:none;stroke:#ff0808;stroke-width:1.034;stroke-linecap:butt;stroke-linejoin:miter;stroke-dasharray:none;stroke-opacity:1"
       id="rect1"
       width="178.99448"
       height="171.72528"
       x="40.777653"
       y="117.95853"
       inkscape:label="BAND1-IMG" />
    <text
       xml:space="preserve"
       style="font-size:45.8691px;text-align:start;writing-mode:lr-tb;direction:ltr;text-anchor:start;display:inline;fill:none;stroke:url(#pattern7);stroke-width:0.247024;stroke-linecap:butt;stroke-linejoin:miter;stroke-dasharray:none;stroke-opacity:1"
       x="240.00349"
       y="203.81866"
       id="text7"
       inkscape:label="BAND1-NAME"><tspan
         sodipodi:role="line"
         id="tspan7"
         x="240.00349"
         y="203.81866"
         style="fill:#00fe00;stroke:#ff0808;stroke-width:0.247024;stroke-opacity:0">&lt;B1&gt;</tspan></text>
    <text
       xml:space="preserve"
       style="font-size:26.6667px;text-align:start;writing-mode:lr-tb;direction:ltr;text-anchor:start;display:inline;fill:#00fe00;stroke:#ff0808;stroke-width:1.034;stroke-linecap:butt;stroke-linejoin:miter;stroke-dasharray:none;stroke-opacity:0"
       x="239.02309"
       y="251.70078"
       id="text9"
       inkscape:label="BAND1-STATS"><tspan
         sodipodi:role="line"
         id="tspan9"
         x="239.02309"
         y="251.70078">Sets: &lt;S1&gt;x, Headline Shows: &lt;H1&gt;x, Venues: &lt;V1&gt; </tspan><tspan
         sodipodi:role="line"
         x="239.02309"
         y="285.03415"
         id="tspan10"
         dx="0 0 0 0 0 0 0 0 0 0 0 0 0 0 0 0 0 0 0 0 0 0 0 0 0 0 0 0 0 0 0 0 0 0 0 0 0 0 0 0 0 0 0 0 0 0 0 0 0 0 0 2.041111">Cities: &lt;Ci1&gt;x, Countries: &lt;Co1&gt;x, Total Cost: &lt;Tc1&gt;€ </tspan></text>
    <text
       xml:space="preserve"
       style="font-size:20.3891px;text-align:center;writing-mode:lr-tb;direction:ltr;text-anchor:middle;display:inline;fill:#000000;fill-opacity:0.381625;stroke:#ff0808;stroke-width:1.31765;stroke-opacity:0"
       x="871.0332"
       y="1073.1658"
       id="text17-0"><tspan
         sodipodi:role="line"
         id="tspan17-3"
         x="871.0332"
         y="1073.1658"
         style="font-size:20.3891px;fill:#000000;fill-opacity:0.381625;stroke-width:1.31765"
         dx="0 0 0 0 0 0 0 0 0 0 0 0 0 0 0 0 0 0 0 0 0 0 0 0 1.4015155 0 3.093632 0 0 0 0 0 1.7782652"
         dy="0 0 0 0 0 0 0 0 0 0 0 0 0 0 0 0 0 0 0 0 0 0 0 0 0 0 0 0 0 0 0 -2.9673092 0 2.9673092">Wrapped tool created by   cyber__chris</tspan></text>
    <path
       d="m 928.67506,1057.0835 c -1.08206,0.051 -1.82101,0.2239 -2.46705,0.4776 -0.66852,0.2607 -1.23524,0.6103 -1.79906,1.1762 -0.56379,0.5658 -0.91097,1.1328 -1.16968,1.8026 -0.25035,0.6474 -0.42,1.3869 -0.46783,2.4693 -0.0481,1.0827 -0.0586,1.4308 -0.0533,4.1926 0.007,2.7617 0.0185,3.1078 0.07,4.1929 0.0515,1.0818 0.22378,1.8205 0.47756,2.4666 0.26098,0.6686 0.61024,1.235 1.17628,1.799 0.566,0.564 1.13273,0.9103 1.80392,1.1696 0.64679,0.2498 1.38656,0.4204 2.46904,0.4679 1.08246,0.047 1.43089,0.059 4.19178,0.053 2.7609,0 3.10849,-0.018 4.19322,-0.068 1.08473,-0.051 1.81958,-0.2246 2.46594,-0.4771 0.6686,-0.262 1.23543,-0.6105 1.79908,-1.1767 0.56363,-0.5663 0.9106,-1.1338 1.1691,-1.8036 0.25061,-0.647 0.42084,-1.3868 0.46783,-2.4683 0.0472,-1.0857 0.0586,-1.4322 0.0533,-4.1934 -0.007,-2.7614 -0.0183,-3.1075 -0.0692,-4.192 -0.0515,-1.0845 -0.22372,-1.821 -0.47739,-2.4677 -0.26132,-0.6685 -0.61017,-1.2345 -1.176,-1.7989 -0.56587,-0.5645 -1.13369,-0.9112 -1.80352,-1.1692 -0.64723,-0.2503 -1.38659,-0.421 -2.46905,-0.4679 -1.08246,-0.046 -1.43089,-0.059 -4.19281,-0.052 -2.7619,0 -3.10766,0.018 -4.19237,0.069 m 0.1187,18.3846 c -0.99155,-0.042 -1.52998,-0.2078 -1.88877,-0.3456 -0.47508,-0.1831 -0.81358,-0.4044 -1.17113,-0.7585 -0.3576,-0.3543 -0.57726,-0.694 -0.76275,-1.168 -0.13927,-0.3589 -0.3071,-0.8965 -0.35351,-1.8883 -0.0504,-1.0715 -0.0612,-1.3931 -0.0669,-4.1082 -0.005,-2.7154 0.007,-3.0367 0.0515,-4.1088 0.0424,-0.9908 0.20807,-1.5296 0.34576,-1.8884 0.18309,-0.4757 0.40354,-0.8135 0.75848,-1.171 0.35495,-0.3574 0.69357,-0.5772 1.16812,-0.7627 0.35838,-0.1412 0.89614,-0.3065 1.88727,-0.3537 1.07254,-0.051 1.39394,-0.062 4.10863,-0.068 2.71473,0 3.03689,0 4.10983,0.051 0.99075,0.043 1.52994,0.2071 1.88813,0.3456 0.47534,0.1832 0.81359,0.4029 1.17097,0.7585 0.35736,0.3555 0.57766,0.6931 0.76315,1.1685 0.14013,0.3576 0.30646,0.8951 0.35329,1.8868 0.0507,1.0725 0.0626,1.3939 0.0675,4.1088 0.007,2.7143 -0.007,3.0367 -0.0516,4.1084 -0.0432,0.9916 -0.20768,1.5301 -0.34578,1.8892 -0.18307,0.475 -0.40377,0.8139 -0.75888,1.1709 -0.35512,0.3569 -0.69339,0.5771 -1.16812,0.7628 -0.35794,0.1413 -0.89633,0.3065 -1.8867,0.3534 -1.07245,0.05 -1.39384,0.062 -4.10958,0.068 -2.71579,0 -3.03613,0 -4.10864,-0.051 m 8.29044,-13.7213 a 1.2203777,1.2203777 0 1 0 1.21793,-1.2225 1.2203777,1.2203777 0 0 0 -1.21793,1.2225 m -9.41923,5.4454 c 0.005,2.8842 2.34798,5.2171 5.23152,5.2116 2.88351,0 5.21791,-2.3478 5.21241,-5.232 -0.007,-2.884 -2.34843,-5.2173 -5.23236,-5.2116 -2.88394,0 -5.21708,2.3483 -5.21157,5.232 m 1.83175,0 a 3.3900059,3.3900059 0 1 1 3.39668,3.3835 3.3895991,3.3895991 0 0 1 -3.39668,-3.3835"
       id="path1"
       style="display:inline;fill:#000000;fill-opacity:0.381625;stroke-width:0.0203396" />
  </g>
</svg>
