<?xml version="1.0" encoding="UTF-8" standalone="no"?>
<!-- Created with Inkscape (http://www.inkscape.org/) -->

<svg
   width="1080"
   height="1080"
   viewBox="0 0 1080 1080"
   version="1.1"
   id="svg1"
   inkscape:version="1.4.3 (0d15f75, 2025-12-25)"
   sodipodi:docname="user-high-level.svg"
   xml:space="preserve"
   xmlns:inkscape="http://www.inkscape.org/namespaces/inkscape"
   xmlns:sodipodi="http://sodipodi.sourceforge.net/DTD/sodipodi-0.dtd"
   xmlns:xlink="http://www.w3.org/1999/xlink"
   xmlns="http://www.w3.org/2000/svg"
   xmlns:svg="http://www.w3.org/2000/svg"><sodipodi:namedview
     id="namedview1"
     pagecolor="#ffffff"
     bordercolor="#111111"
     borderopacity="1"
     inkscape:showpageshadow="0"
     inkscape:pageopacity="0"
     inkscape:pagecheckerboard="1"
     inkscape:deskcolor="#d1d1d1"
     inkscape:document-units="px"
     inkscape:zoom="0.80248853"
     inkscape:cx="646.11515"
     inkscape:cy="520.87972"
     inkscape:window-width="1600"
     inkscape:window-height="1051"
     inkscape:window-x="1363"
     inkscape:window-y="733"
     inkscape:window-maximized="0"
     inkscape:current-layer="layer3"
     showguides="true"
     showgrid="false"><sodipodi:guide
       position="40.777653,933.50623"
       orientation="1,0"
       id="guide4"
       inkscape:locked="false" /><sodipodi:guide
       position="19.218137,1039.9351"
       orientation="0,-1"
       id="guide5"
       inkscape:locked="false" /><sodipodi:guide
       position="219.77213,876.17883"
       orientation="1,0"
       id="guide6"
       inkscape:locked="false" /><sodipodi:guide
       position="240.00349,1019.0461"
       orientation="1,0"
       id="guide7"
       inkscape:locked="false" /><sodipodi:guide
       position="227.60212,876.18133"
       orientation="0,-1"
       id="guide8"
       inkscape:locked="false" /><sodipodi:guide
       position="254.45323,789.63113"
       orientation="0,-1"
       id="guide9"
       inkscape:locked="false" /><sodipodi:guide
       position="540.03003,1062.4745"
       orientation="1,0"
       id="guide10"
       inkscape:locked="false" /><sodipodi:guide
       position="975.01966,2.0441492"
       orientation="0,-1"
       id="guide13"
       inkscape:locked="false" /><sodipodi:guide
       position="953.35351,22.954449"
       orientation="0,-1"
       id="guide14"
       inkscape:locked="false" /></sodipodi:namedview><defs
     id="defs1"><rect
       x="780.92987"
       y="1044.3204"
       width="299.07013"
       height="35.67958"
       id="rect4" /><rect
       x="40.777653"
       y="84.63784"
       width="1039.9006"
       height="71.868769"
       id="rect12" /><rect
       x="40.777653"
       y="613.64398"
       width="396.92645"
       height="221.71286"
       id="rect11" /><rect
       x="40.777653"
       y="617.9352"
       width="398.35685"
       height="140.17974"
       id="rect3" /><pattern
       inkscape:collect="always"
       xlink:href="#pattern6-7"
       preserveAspectRatio="xMidYMid"
       id="pattern7"
       patternTransform="matrix(0.2389014,0,0,0.2389014,228.0576,249.68718)" /><pattern
       patternUnits="userSpaceOnUse"
       width="29"
       height="20"
       patternTransform="translate(190,350)"
       preserveAspectRatio="xMidYMid"
       style="fill:#010000"
       id="pattern6-7"
       inkscape:label=""
       inkscape:collect="always"
       inkscape:isstock="true"><path
         style="fill:none;stroke:#010000;stroke-width:10;stroke-linecap:butt;stroke-dasharray:none;paint-order:stroke markers fill;stop-color:#010000"
         d="M 0,5 C 19,5 10,15 29,15"
         id="path4-2"
         sodipodi:nodetypes="cc" /></pattern><linearGradient
       id="linearGradient3"
       inkscape:collect="always"><stop
         style="stop-color:#010000;stop-opacity:1;"
         offset="0"
         id="stop3" /><stop
         style="stop-color:#0000fe;stop-opacity:1"
         offset="1"
         id="stop4" /></linearGradient><linearGradient
       inkscape:collect="always"
       xlink:href="#linearGradient3"
       id="linearGradient4"
       x1="540"
       y1="0"
       x2="540"
       y2="1080"
       gradientUnits="userSpaceOnUse" /></defs><g
     inkscape:groupmode="layer"
     id="layer2"
     inkscape:label="BACKGROUND"
     style="display:inline"
     sodipodi:insensitive="true"><rect
       style="fill:url(#linearGradient4);fill-opacity:1"
       id="rect2"
       width="1080"
       height="1080"
       x="0"
       y="0" /></g><g
     inkscape:label="Layer 1"
     inkscape:groupmode="layer"
     id="layer1"
     style="display:inline"
     sodipodi:insensitive="true"><text
       xml:space="preserve"
       style="font-size:58.6667px;text-align:start;writing-mode:lr-tb;direction:ltr;text-anchor:start;fill:#00fe00;stroke-width:0.525518"
       x="532.20966"
       y="96.081085"
       id="text1"
       inkscape:label="HEADER"><tspan
         sodipodi:role="line"
         id="tspan1"
         x="542.52216"
         y="96.081085"
         style="font-size:58.6667px;text-align:center;text-anchor:middle;fill:#00fe00;stroke-width:0.525518">&lt;USER&gt;'s &lt;YEAR&gt; concert recap </tspan></text></g><g
     inkscape:groupmode="layer"
     id="layer3"
     inkscape:label="BAND1"><rect
       style="display:inline;fill:none;stroke:#ff0808;stroke-width:2.28626;stroke-linecap:butt;stroke-linejoin:miter;stroke-dasharray:none;stroke-opacity:1"
       id="rect1"
       width="395.77121"
       height="379.69843"
       x="42.117893"
       y="203.96307"
       inkscape:label="BAND1-IMG" /><text
       xml:space="preserve"
       style="font-size:45.8691px;text-align:start;writing-mode:lr-tb;direction:ltr;text-anchor:start;display:inline;fill:none;stroke:url(#pattern7);stroke-width:0.247024;stroke-linecap:butt;stroke-linejoin:miter;stroke-dasharray:none;stroke-opacity:1"
       x="240.00349"
       y="203.81866"
       id="text7"
       inkscape:label="BAND1-NAME"><tspan
         sodipodi:role="line"
         id="tspan7"
         x="240.00349"
         y="203.81866"
         style="fill:#00fe00;stroke:#ff0808;stroke-width:0.247024;stroke-opacity:0" /></text><text
       xml:space="preserve"
       style="font-size:37.3333px;text-align:start;writing-mode:lr-tb;direction:ltr;text-anchor:start;display:inline;fill:#00fe00;stroke:#ff0808;stroke-width:1.034;stroke-linecap:butt;stroke-linejoin:miter;stroke-dasharray:none;stroke-opacity:0"
       x="481.90042"
       y="232.70023"
       id="text9"
       inkscape:label="BAND1-STATS"><tspan
         sodipodi:role="line"
         x="481.90042"
         y="232.70023"
         id="tspan2"
         style="font-size:37.3333px;fill:#00fe00">Concerts: &lt;Cso&gt; + &lt;Dsf&gt; (festival days)</tspan><tspan
         sodipodi:role="line"
         x="481.90042"
         y="279.36685"
         id="tspan3"
         style="font-size:37.3333px;fill:#00fe00">Sets seen: &lt;Sto&gt; + &lt;Sf&gt; (festival sets)</tspan><tspan
         sodipodi:role="line"
         x="481.90042"
         y="326.03348"
         style="font-size:37.3333px;fill:#00fe00"
         id="tspan15" /><tspan
         sodipodi:role="line"
         x="481.90042"
         y="372.7001"
         id="tspan4"
         dx="0 0 0 0 0 0 0 0 0 0 0 0 0 0 0 0 0 0 0 0 0 0 0 0 2.041111"
         style="font-size:37.3333px;fill:#00fe00">Spent for concerts: &lt;Toc&gt;€</tspan><tspan
         sodipodi:role="line"
         x="481.90042"
         y="419.36673"
         dx="0 0 0 0 0 0 0 0 0 0 0 0 0 0 0 0 0 0 0 0 0 0 0 0 0 0 0 0 0 0 0 0 0 0 0 0 0 0 0 0 0 0 0 0 0 0 0 0 0 0 0 2.041111"
         style="font-size:37.3333px;fill:#00fe00"
         id="tspan8">Spent for festivals: &lt;Tfc&gt;€</tspan><tspan
         sodipodi:role="line"
         x="481.90042"
         y="466.03336"
         style="font-size:37.3333px;fill:#00fe00"
         id="tspan9"
         dx="0 0 0 0 0 0 0 0 0 0 0 0 0 0 0 0 0 0 0 0 0 0 0 0 0 0 0 0 0 0 0 0 0 0 0 0 0 0 0 0 0 0 0 2.041111">Mean: &lt;Moc&gt;€ (w/o festival)</tspan><tspan
         sodipodi:role="line"
         x="481.90042"
         y="512.70001"
         dx="0 0 0 0 0 0 0 0 0 0 0 0 0 0 0 0 0 0 0 0 0 0 0 0 0 0 0 0 0 0 0 2.041111"
         style="font-size:37.3333px;fill:#00fe00"
         id="tspan10" /><tspan
         sodipodi:role="line"
         x="481.90042"
         y="559.36664"
         dx="0 0 0 0 0 0 0 0 0 0 0 0 0 0 0 0 0 0 0 0 0 0 0 0 0 0 0 0 0 0 0 0 0 0 0 0 0 0 0 0 0 0 0 0 0 2.041111"
         style="font-size:37.3333px;fill:#00fe00"
         id="tspan13">Most expensive:</tspan><tspan
         sodipodi:role="line"
         x="481.90042"
         y="606.03326"
         id="tspan5"
         style="font-size:37.3333px;fill:#00fe00"><tspan
           dx="0 0 0 0 0 0 0 0 0 0 0 0 0 0 0 0 0 0 0 0 0 0 0 0 0 0 0 0 0 0 0 0 0 0 0 0 0 0 0 0 0 0 0 0 0 0 0 0 0 0 0 0 0 0 0 0 2.041111"
           id="tspan20"
           style="font-size:37.3333px;fill:#00fe00">&lt;Eo&gt;€ (&lt;Eob&gt;)</tspan></tspan><tspan
         sodipodi:role="line"
         x="481.90042"
         y="652.69989"
         style="font-size:37.3333px;fill:#00fe00"
         id="tspan19" /><tspan
         sodipodi:role="line"
         x="481.90042"
         y="699.36652"
         style="font-size:37.3333px;fill:#00fe00"
         id="tspan21">Price per set:</tspan><tspan
         sodipodi:role="line"
         x="481.90042"
         y="746.03314"
         style="font-size:37.3333px;fill:#00fe00"
         id="tspan22">&lt;Ps&gt;€ (incl. festivals: &lt;Pso&gt;€) </tspan></text><!--MAP--><text
       xml:space="preserve"
       id="text2"
       style="font-size:37.3333px;text-align:start;writing-mode:lr-tb;direction:ltr;white-space:pre;shape-inside:url(#rect3);display:inline;fill:#00fe00;stroke:#ff0808;stroke-width:1.034;stroke-opacity:0" /><text
       xml:space="preserve"
       id="text12"
       style="font-size:37.3333px;text-align:start;writing-mode:lr-tb;direction:ltr;white-space:pre;shape-inside:url(#rect12);display:inline;fill:#00fe00;stroke:#ff0808;stroke-width:1.034;stroke-opacity:0"
       transform="matrix(0.99934752,0,0,1,0.02691582,0)"
       x="507.49045"
       y="0" /><text
       xml:space="preserve"
       style="font-size:32px;text-align:center;writing-mode:lr-tb;direction:ltr;text-anchor:middle;fill:#00fe00;stroke:#ff0808;stroke-width:1.034;stroke-opacity:0"
       x="538.54541"
       y="159.25504"
       id="text17"><tspan
         sodipodi:role="line"
         id="tspan17"
         x="538.54541"
         y="159.25504"
         style="font-size:32px;fill:#00fe00">Artists: &lt;Ar&gt;, Venues: &lt;Vn&gt;, Cities: &lt;Ci&gt;, Countries: &lt;Cn&gt;</tspan></text><text
       xml:space="preserve"
       id="text3"
       style="font-size:32px;text-align:center;writing-mode:lr-tb;direction:ltr;white-space:pre;shape-inside:url(#rect4);display:inline;fill:#aa0000;stroke:#ff0808;stroke-width:1.034;stroke-opacity:0"><tspan
         x="780.92969"
         y="1109.1946"
         id="tspan14"><tspan
           dx="0 22.34375"
           id="tspan11">Cr</tspan></tspan></text></g><g
     inkscape:groupmode="layer"
     id="layer4"
     inkscape:label="Credits"
     style="display:inline"
     sodipodi:insensitive="true"><text
       xml:space="preserve"
       style="font-size:20.3891px;text-align:center;writing-mode:lr-tb;direction:ltr;text-anchor:middle;display:inline;fill:#000000;fill-opacity:0.381625;stroke:#ff0808;stroke-width:1.31765;stroke-opacity:0"
       x="872.96625"
       y="1073.1953"
       id="text17-0"><tspan
         sodipodi:role="line"
         id="tspan17-3"
         x="872.96625"
         y="1073.1953"
         style="font-size:20.3891px;fill:#000000;fill-opacity:0.381625;stroke-width:1.31765"
         dx="0 0 0 0 0 0 0 0 0 0 0 0 0 0 0 0 0 0 0 0 0 0 0 0 0 0 3.093632 0 0 0 0 0 1.7782652"
         dy="0 0 0 0 0 0 0 0 0 0 0 0 0 0 0 0 0 0 0 0 0 0 0 0 0 0 0 0 0 0 0 -2.9673092 0 2.9673092">Wrapped tool created by   cyber__chris</tspan></text><path
       d="m 930.60817,1057.1131 c -1.08206,0.051 -1.82101,0.2239 -2.46705,0.4776 -0.66852,0.2607 -1.23524,0.6103 -1.79906,1.1762 -0.56379,0.5658 -0.91097,1.1328 -1.16968,1.8026 -0.25035,0.6474 -0.42,1.3869 -0.46783,2.4693 -0.0481,1.0827 -0.0586,1.4308 -0.0533,4.1926 0.007,2.7617 0.0185,3.1078 0.07,4.1929 0.0515,1.0818 0.22378,1.8205 0.47756,2.4666 0.26098,0.6686 0.61024,1.235 1.17628,1.799 0.566,0.564 1.13273,0.9103 1.80392,1.1696 0.64679,0.2498 1.38656,0.4204 2.46904,0.4679 1.08246,0.047 1.43089,0.059 4.19178,0.053 2.7609,0 3.10849,-0.018 4.19322,-0.068 1.08473,-0.051 1.81958,-0.2246 2.46594,-0.4771 0.6686,-0.262 1.23543,-0.6105 1.79908,-1.1767 0.56363,-0.5663 0.9106,-1.1338 1.1691,-1.8036 0.25061,-0.647 0.42084,-1.3868 0.46783,-2.4683 0.0472,-1.0857 0.0586,-1.4322 0.0533,-4.1934 -0.007,-2.7614 -0.0183,-3.1075 -0.0692,-4.192 -0.0515,-1.0845 -0.22372,-1.821 -0.47739,-2.4677 -0.26132,-0.6685 -0.61017,-1.2345 -1.176,-1.7989 -0.56587,-0.5645 -1.13369,-0.9112 -1.80352,-1.1692 -0.64723,-0.2503 -1.38659,-0.421 -2.46905,-0.4679 -1.08246,-0.046 -1.43089,-0.059 -4.19281,-0.052 -2.7619,0 -3.10766,0.018 -4.19237,0.069 m 0.1187,18.3846 c -0.99155,-0.042 -1.52998,-0.2078 -1.88877,-0.3456 -0.47508,-0.1831 -0.81358,-0.4044 -1.17113,-0.7585 -0.3576,-0.3543 -0.57726,-0.694 -0.76275,-1.168 -0.13927,-0.3589 -0.3071,-0.8965 -0.35351,-1.8883 -0.0504,-1.0715 -0.0612,-1.3931 -0.0669,-4.1082 -0.005,-2.7154 0.007,-3.0367 0.0515,-4.1088 0.0424,-0.9908 0.20807,-1.5296 0.34576,-1.8884 0.18309,-0.4757 0.40354,-0.8135 0.75848,-1.171 0.35495,-0.3574 0.69357,-0.5772 1.16812,-0.7627 0.35838,-0.1412 0.89614,-0.3065 1.88727,-0.3537 1.07254,-0.051 1.39394,-0.062 4.10863,-0.068 2.71473,0 3.03689,0 4.10983,0.051 0.99075,0.043 1.52994,0.2071 1.88813,0.3456 0.47534,0.1832 0.81359,0.4029 1.17097,0.7585 0.35736,0.3555 0.57766,0.6931 0.76315,1.1685 0.14013,0.3576 0.30646,0.8951 0.35329,1.8868 0.0507,1.0725 0.0626,1.3939 0.0675,4.1088 0.007,2.7143 -0.007,3.0367 -0.0516,4.1084 -0.0432,0.9916 -0.20768,1.5301 -0.34578,1.8892 -0.18307,0.475 -0.40377,0.8139 -0.75888,1.1709 -0.35512,0.3569 -0.69339,0.5771 -1.16812,0.7628 -0.35794,0.1413 -0.89633,0.3065 -1.8867,0.3534 -1.07245,0.05 -1.39384,0.062 -4.10958,0.068 -2.71579,0 -3.03613,0 -4.10864,-0.051 m 8.29044,-13.7213 a 1.2203777,1.2203777 0 1 0 1.21793,-1.2225 1.2203777,1.2203777 0 0 0 -1.21793,1.2225 m -9.41923,5.4454 c 0.005,2.8842 2.34798,5.2171 5.23152,5.2116 2.88351,0 5.21791,-2.3478 5.21241,-5.232 -0.007,-2.884 -2.34843,-5.2173 -5.23236,-5.2116 -2.88394,0 -5.21708,2.3483 -5.21157,5.232 m 1.83175,0 a 3.3900059,3.3900059 0 1 1 3.39668,3.3835 3.3895991,3.3895991 0 0 1 -3.39668,-3.3835"
       id="path1"
       style="fill:#000000;fill-opacity:0.381625;stroke-width:0.0203396" /></g></svg>
