<?xml version="1.0" encoding="UTF-8" standalone="no"?>
<!-- Created with Inkscape (http://www.inkscape.org/) -->

<svg
   width="1080"
   height="1350"
   viewBox="0 0 1080 1350"
   version="1.1"
   id="svg1"
   inkscape:version="1.4.3 (0d15f75, 2025-12-25)"
   sodipodi:docname="user-high-level.svg"
   xml:space="preserve"
   xmlns:inkscape="http://www.inkscape.org/namespaces/inkscape"
   xmlns:sodipodi="http://sodipodi.sourceforge.net/DTD/sodipodi-0.dtd"
   xmlns:xlink="http://www.w3.org/1999/xlink"
   xmlns="http://www.w3.org/2000/svg"
   xmlns:svg="http://www.w3.org/2000/svg"><sodipodi:namedview
     id="namedview1"
     pagecolor="#ffffff"
     bordercolor="#111111"
     borderopacity="1"
     inkscape:showpageshadow="0"
     inkscape:pageopacity="0"
     inkscape:pagecheckerboard="1"
     inkscape:deskcolor="#d1d1d1"
     inkscape:document-units="px"
     inkscape:zoom="1.3874944"
     inkscape:cx="252.25328"
     inkscape:cy="903.4271"
     inkscape:window-width="1583"
     inkscape:window-height="838"
     inkscape:window-x="1345"
     inkscape:window-y="658"
     inkscape:window-maximized="0"
     inkscape:current-layer="layer3"
     showguides="true"
     showgrid="false"><sodipodi:guide
       position="40.777653,933.50623"
       orientation="1,0"
       id="guide4"
       inkscape:locked="false" /><sodipodi:guide
       position="19.218137,1039.9351"
       orientation="0,-1"
       id="guide5"
       inkscape:locked="false" /><sodipodi:guide
       position="219.77213,876.17883"
       orientation="1,0"
       id="guide6"
       inkscape:locked="false" /><sodipodi:guide
       position="240.00349,1019.0461"
       orientation="1,0"
       id="guide7"
       inkscape:locked="false" /><sodipodi:guide
       position="227.60212,876.18133"
       orientation="0,-1"
       id="guide8"
       inkscape:locked="false" /><sodipodi:guide
       position="254.45323,789.63113"
       orientation="0,-1"
       id="guide9"
       inkscape:locked="false" /><sodipodi:guide
       position="540.03003,1062.4745"
       orientation="1,0"
       id="guide10"
       inkscape:locked="false" /><sodipodi:guide
       position="975.01966,2.0441492"
       orientation="0,-1"
       id="guide13"
       inkscape:locked="false" /><sodipodi:guide
       position="953.35351,22.954449"
       orientation="0,-1"
       id="guide14"
       inkscape:locked="false" /></sodipodi:namedview><defs
     id="defs1"><rect
       x="780.92987"
       y="1044.3204"
       width="299.07013"
       height="35.679581"
       id="rect4" /><rect
       x="40.777653"
       y="84.63784"
       width="1039.9006"
       height="71.868767"
       id="rect12" /><rect
       x="40.777653"
       y="613.64398"
       width="396.92645"
       height="221.71286"
       id="rect11" /><rect
       x="40.777653"
       y="617.93518"
       width="398.35684"
       height="140.17973"
       id="rect3" /><pattern
       inkscape:collect="always"
       xlink:href="#pattern6-7"
       preserveAspectRatio="xMidYMid"
       id="pattern7"
       patternTransform="matrix(0.2389014,0,0,0.2389014,228.0576,249.68718)" /><pattern
       patternUnits="userSpaceOnUse"
       width="29"
       height="20"
       patternTransform="translate(190,350)"
       preserveAspectRatio="xMidYMid"
       style="fill:#000000"
       id="pattern6-7"
       inkscape:label=""
       inkscape:collect="always"
       inkscape:isstock="true"><path
         style="fill:none;stroke:#000000;stroke-width:10;stroke-linecap:butt;stroke-dasharray:none;paint-order:stroke markers fill;stop-color:#000000"
         d="M 0,5 C 19,5 10,15 29,15"
         id="path4-2"
         sodipodi:nodetypes="cc" /></pattern><linearGradient
       id="linearGradient3"
       inkscape:collect="always"><stop
         style="stop-color:#000000;stop-opacity:1;"
         offset="0"
         id="stop3" /><stop
         style="stop-color:#aa0000;stop-opacity:1"
         offset="1"
         id="stop4" /></linearGradient><linearGradient
       inkscape:collect="always"
       xlink:href="#linearGradient3"
       id="linearGradient4"
       x1="540"
       y1="0"
       x2="540.03003"
       y2="1351.3843"
       gradientUnits="userSpaceOnUse"
       gradientTransform="scale(1,1.25)" /></defs><g
     inkscape:groupmode="layer"
     id="layer2"
     inkscape:label="BACKGROUND"
     style="display:inline"
     sodipodi:insensitive="true"><rect
       style="fill:url(#linearGradient4);fill-opacity:1;stroke-width:1.11803"
       id="rect2"
       width="1080"
       height="1350"
       x="0"
       y="0" /></g><g
     inkscape:label="Layer 1"
     inkscape:groupmode="layer"
     id="layer1"
     style="display:inline"><text
       xml:space="preserve"
       style="font-size:58.6667px;text-align:start;writing-mode:lr-tb;direction:ltr;text-anchor:start;display:inline;fill:#fff700;stroke-width:0.525518"
       x="529.71753"
       y="123.39482"
       id="text1"
       inkscape:label="HEADER"><tspan
         sodipodi:role="line"
         id="tspan1"
         x="540.03003"
         y="123.39482"
         style="font-size:58.6667px;text-align:center;text-anchor:middle;fill:#fff700;stroke-width:0.525518">Someones's Concert Recap </tspan></text><text
       xml:space="preserve"
       style="font-size:40px;text-align:start;writing-mode:lr-tb;direction:ltr;text-anchor:start;display:inline;fill:#fff700;stroke-width:0.327273"
       x="540.03003"
       y="186.37808"
       id="text1-3"
       inkscape:label="HEADER"><tspan
         sodipodi:role="line"
         id="tspan1-6"
         x="540.03003"
         y="186.37808"
         style="font-size:40px;text-align:center;text-anchor:middle;fill:#fff700;stroke-width:0.327273">01.01.2025 - 31.12.2025</tspan></text></g><g
     inkscape:groupmode="layer"
     id="layer3"
     inkscape:label="BAND1"><rect
       style="display:inline;fill:none;stroke:#ff0808;stroke-width:2.28626;stroke-linecap:butt;stroke-linejoin:miter;stroke-dasharray:none;stroke-opacity:1"
       id="rect1"
       width="395.77121"
       height="379.69843"
       x="342.14444"
       y="310.06491"
       inkscape:label="BAND1-IMG" /><text
       xml:space="preserve"
       style="font-size:45.8691px;text-align:start;writing-mode:lr-tb;direction:ltr;text-anchor:start;display:inline;fill:none;stroke:url(#pattern7);stroke-width:0.247024;stroke-linecap:butt;stroke-linejoin:miter;stroke-dasharray:none;stroke-opacity:1"
       x="240.00349"
       y="203.81866"
       id="text7"
       inkscape:label="BAND1-NAME"><tspan
         sodipodi:role="line"
         id="tspan7"
         x="240.00349"
         y="203.81866"
         style="fill:#fff700;stroke:#ff0808;stroke-width:0.247024;stroke-opacity:0" /></text><text
       xml:space="preserve"
       style="font-size:37.3333px;text-align:center;writing-mode:lr-tb;direction:ltr;text-anchor:middle;display:inline;fill:#fff700;stroke:#ff0808;stroke-width:1.034;stroke-linecap:butt;stroke-linejoin:miter;stroke-dasharray:none;stroke-opacity:0"
       x="540.03003"
       y="764.98419"
       id="text9"
       inkscape:label="BAND1-STATS"><tspan
         sodipodi:role="line"
         x="540.03003"
         y="764.98419"
         id="tspan2"
         style="font-size:37.3333px;fill:#fff700">Concerts: 4 + 1 (Festival Days)</tspan><tspan
         sodipodi:role="line"
         x="540.03003"
         y="811.65082"
         id="tspan3"
         style="font-size:37.3333px;fill:#fff700">Sets Seen: 12 + 6 (Festival Sets)</tspan><tspan
         sodipodi:role="line"
         x="540.03003"
         y="858.31744"
         style="font-size:37.3333px;fill:#fff700"
         id="tspan15" /><tspan
         sodipodi:role="line"
         x="540.03003"
         y="904.98407"
         id="tspan4"
         dx="0 0 0 0 0 0 0 0 0 0 0 0 0 0 0 0 0 0 0 0 0 0 0 0 2.041111"
         style="font-size:37.3333px;fill:#fff700">Spent for Concerts: 201.35€</tspan><tspan
         sodipodi:role="line"
         x="540.03003"
         y="951.6507"
         style="font-size:37.3333px;fill:#fff700"
         id="tspan9"
         dx="0 0 0 0 0 0 0 0 0 0 0 0 0 0 0 0 0 0 0 0 0 0 0 0 0 0 0 0 0 0 0 0 0 0 0 0 0 0 0 0 0 0 0 2.041111"><tspan
           dx="0 0 0 0 0 0 0 0 0 0 0 0 0 0 0 0 0 0 0 0 0 0 0 0 0 0 0 0 0 0 0 0 0 0 0 0 0 0 0 0 0 0 0 0 0 0 0 0 0 0 0 2.041111"
           id="tspan11"
           style="font-size:37.3333px;fill:#fff700">Spent for Festivals: 35.5€</tspan></tspan><tspan
         sodipodi:role="line"
         x="540.03003"
         y="998.31732"
         dx="0 0 0 0 0 0 0 0 0 0 0 0 0 0 0 0 0 0 0 0 0 0 0 0 0 0 0 0 0 0 0 2.041111"
         style="font-size:37.3333px;fill:#fff700"
         id="tspan10" /><tspan
         sodipodi:role="line"
         x="540.03003"
         y="1044.984"
         id="tspan5"
         style="font-size:37.3333px;fill:#fff700"><tspan
           dx="0 0 0 0 0 0 0 0 0 0 0 0 0 0 0 0 0 0 0 0 0 0 0 0 0 0 0 0 0 0 0 0 0 0 0 0 0 0 0 0 0 0 0 0 0 0 0 0 0 0 0 0 0 0 0 0 0 0 0 0 0 0 0 0 0 0 0 0 0 0 0 0 2.041111"
           id="tspan12"
           style="font-size:37.3333px;fill:#fff700">Most Expensive: 98.45€ (Bring me the Horizon)</tspan></tspan><tspan
         sodipodi:role="line"
         x="546.59253"
         y="1091.6506"
         style="font-size:37.3333px;fill:#fff700"
         id="tspan22">Price per Set: 13.16€ (incl. festivals: 16.78€) </tspan></text><svg xmlns:xlink="http://www.w3.org/1999/xlink" x="40" y="830" width="760pt" height="600pt" viewBox="0 0 1080 432" xmlns="http://www.w3.org/2000/svg" version="1.1">
 <metadata>

  <rdf:RDF xmlns:dc="http://purl.org/dc/elements/1.1/" xmlns:cc="http://creativecommons.org/ns#" xmlns:rdf="http://www.w3.org/1999/02/22-rdf-syntax-ns#">

   <cc:Work>

    <dc:type rdf:resource="http://purl.org/dc/dcmitype/StillImage"/>

    <dc:date>2026-01-10T03:43:13.394816</dc:date>

    <dc:format>image/svg+xml</dc:format>

    <dc:creator>

     <cc:Agent>

      <dc:title>Matplotlib v3.10.8, https://matplotlib.org/</dc:title>

     </cc:Agent>

    </dc:creator>

   </cc:Work>

  </rdf:RDF>

 </metadata>

 <defs>

  <style type="text/css">*{stroke-linejoin: round; stroke-linecap: butt}</style>

 </defs>

 <g id="figure_1">

  <g id="patch_1">

   <path d="M 0 432

L 1080 432

L 1080 0

L 0 0

L 0 432

z

" style="fill: none; opacity: 0"/>

  </g>

  <g id="axes_1">

   <g id="patch_2">

    <path d="M 27.54 293.16

L 1069.2 293.16

L 1069.2 138.84

L 27.54 138.84

L 27.54 293.16

z

" style="fill: none"/>

   </g>

   <g id="patch_3">

    <path d="M 38.1495 188.0295

L 55.5105 188.0295

L 55.5105 205.3905

L 38.1495 205.3905

z

" clip-path="url(#pcf9522003d)" style="fill: #954a4a"/>

   </g>

   <g id="patch_4">

    <path d="M 38.1495 207.3195

L 55.5105 207.3195

L 55.5105 224.6805

L 38.1495 224.6805

z

" clip-path="url(#pcf9522003d)" style="fill: #954a4a"/>

   </g>

   <g id="patch_5">

    <path d="M 38.1495 226.6095

L 55.5105 226.6095

L 55.5105 243.9705

L 38.1495 243.9705

z

" clip-path="url(#pcf9522003d)" style="fill: #954a4a"/>

   </g>

   <g id="patch_6">

    <path d="M 38.1495 245.8995

L 55.5105 245.8995

L 55.5105 263.2605

L 38.1495 263.2605

z

" clip-path="url(#pcf9522003d)" style="fill: #954a4a"/>

   </g>

   <g id="patch_7">

    <path d="M 38.1495 265.1895

L 55.5105 265.1895

L 55.5105 282.5505

L 38.1495 282.5505

z

" clip-path="url(#pcf9522003d)" style="fill: #954a4a"/>

   </g>

   <g id="patch_8">

    <path d="M 57.4395 149.4495

L 74.8005 149.4495

L 74.8005 166.8105

L 57.4395 166.8105

z

" clip-path="url(#pcf9522003d)" style="fill: #954a4a"/>

   </g>

   <g id="patch_9">

    <path d="M 57.4395 168.7395

L 74.8005 168.7395

L 74.8005 186.1005

L 57.4395 186.1005

z

" clip-path="url(#pcf9522003d)" style="fill: #954a4a"/>

   </g>

   <g id="patch_10">

    <path d="M 57.4395 188.0295

L 74.8005 188.0295

L 74.8005 205.3905

L 57.4395 205.3905

z

" clip-path="url(#pcf9522003d)" style="fill: #954a4a"/>

   </g>

   <g id="patch_11">

    <path d="M 57.4395 207.3195

L 74.8005 207.3195

L 74.8005 224.6805

L 57.4395 224.6805

z

" clip-path="url(#pcf9522003d)" style="fill: #954a4a"/>

   </g>

   <g id="patch_12">

    <path d="M 57.4395 226.6095

L 74.8005 226.6095

L 74.8005 243.9705

L 57.4395 243.9705

z

" clip-path="url(#pcf9522003d)" style="fill: #954a4a"/>

   </g>

   <g id="patch_13">

    <path d="M 57.4395 245.8995

L 74.8005 245.8995

L 74.8005 263.2605

L 57.4395 263.2605

z

" clip-path="url(#pcf9522003d)" style="fill: #954a4a"/>

   </g>

   <g id="patch_14">

    <path d="M 57.4395 265.1895

L 74.8005 265.1895

L 74.8005 282.5505

L 57.4395 282.5505

z

" clip-path="url(#pcf9522003d)" style="fill: #954a4a"/>

   </g>

   <g id="patch_15">

    <path d="M 76.7295 149.4495

L 94.0905 149.4495

L 94.0905 166.8105

L 76.7295 166.8105

z

" clip-path="url(#pcf9522003d)" style="fill: #954a4a"/>

   </g>

   <g id="patch_16">

    <path d="M 76.7295 168.7395

L 94.0905 168.7395

L 94.0905 186.1005

L 76.7295 186.1005

z

" clip-path="url(#pcf9522003d)" style="fill: #954a4a"/>

   </g>

   <g id="patch_17">

    <path d="M 76.7295 188.0295

L 94.0905 188.0295

L 94.0905 205.3905

L 76.7295 205.3905

z

" clip-path="url(#pcf9522003d)" style="fill: #954a4a"/>

   </g>

   <g id="patch_18">

    <path d="M 76.7295 207.3195

L 94.0905 207.3195

L 94.0905 224.6805

L 76.7295 224.6805

z

" clip-path="url(#pcf9522003d)" style="fill: #954a4a"/>

   </g>

   <g id="patch_19">

    <path d="M 76.7295 226.6095

L 94.0905 226.6095

L 94.0905 243.9705

L 76.7295 243.9705

z

" clip-path="url(#pcf9522003d)" style="fill: #954a4a"/>

   </g>

   <g id="patch_20">

    <path d="M 76.7295 245.8995

L 94.0905 245.8995

L 94.0905 263.2605

L 76.7295 263.2605

z

" clip-path="url(#pcf9522003d)" style="fill: #e0da22"/>

   </g>

   <g id="patch_21">

    <path d="M 76.7295 265.1895

L 94.0905 265.1895

L 94.0905 282.5505

L 76.7295 282.5505

z

" clip-path="url(#pcf9522003d)" style="fill: #954a4a"/>

   </g>

   <g id="patch_22">

    <path d="M 96.0195 149.4495

L 113.3805 149.4495

L 113.3805 166.8105

L 96.0195 166.8105

z

" clip-path="url(#pcf9522003d)" style="fill: #954a4a"/>

   </g>

   <g id="patch_23">

    <path d="M 96.0195 168.7395

L 113.3805 168.7395

L 113.3805 186.1005

L 96.0195 186.1005

z

" clip-path="url(#pcf9522003d)" style="fill: #954a4a"/>

   </g>

   <g id="patch_24">

    <path d="M 96.0195 188.0295

L 113.3805 188.0295

L 113.3805 205.3905

L 96.0195 205.3905

z

" clip-path="url(#pcf9522003d)" style="fill: #954a4a"/>

   </g>

   <g id="patch_25">

    <path d="M 96.0195 207.3195

L 113.3805 207.3195

L 113.3805 224.6805

L 96.0195 224.6805

z

" clip-path="url(#pcf9522003d)" style="fill: #954a4a"/>

   </g>

   <g id="patch_26">

    <path d="M 96.0195 226.6095

L 113.3805 226.6095

L 113.3805 243.9705

L 96.0195 243.9705

z

" clip-path="url(#pcf9522003d)" style="fill: #954a4a"/>

   </g>

   <g id="patch_27">

    <path d="M 96.0195 245.8995

L 113.3805 245.8995

L 113.3805 263.2605

L 96.0195 263.2605

z

" clip-path="url(#pcf9522003d)" style="fill: #954a4a"/>

   </g>

   <g id="patch_28">

    <path d="M 96.0195 265.1895

L 113.3805 265.1895

L 113.3805 282.5505

L 96.0195 282.5505

z

" clip-path="url(#pcf9522003d)" style="fill: #954a4a"/>

   </g>

   <g id="patch_29">

    <path d="M 115.3095 149.4495

L 132.6705 149.4495

L 132.6705 166.8105

L 115.3095 166.8105

z

" clip-path="url(#pcf9522003d)" style="fill: #954a4a"/>

   </g>

   <g id="patch_30">

    <path d="M 115.3095 168.7395

L 132.6705 168.7395

L 132.6705 186.1005

L 115.3095 186.1005

z

" clip-path="url(#pcf9522003d)" style="fill: #954a4a"/>

   </g>

   <g id="patch_31">

    <path d="M 115.3095 188.0295

L 132.6705 188.0295

L 132.6705 205.3905

L 115.3095 205.3905

z

" clip-path="url(#pcf9522003d)" style="fill: #954a4a"/>

   </g>

   <g id="patch_32">

    <path d="M 115.3095 207.3195

L 132.6705 207.3195

L 132.6705 224.6805

L 115.3095 224.6805

z

" clip-path="url(#pcf9522003d)" style="fill: #954a4a"/>

   </g>

   <g id="patch_33">

    <path d="M 115.3095 226.6095

L 132.6705 226.6095

L 132.6705 243.9705

L 115.3095 243.9705

z

" clip-path="url(#pcf9522003d)" style="fill: #954a4a"/>

   </g>

   <g id="patch_34">

    <path d="M 115.3095 245.8995

L 132.6705 245.8995

L 132.6705 263.2605

L 115.3095 263.2605

z

" clip-path="url(#pcf9522003d)" style="fill: #954a4a"/>

   </g>

   <g id="patch_35">

    <path d="M 115.3095 265.1895

L 132.6705 265.1895

L 132.6705 282.5505

L 115.3095 282.5505

z

" clip-path="url(#pcf9522003d)" style="fill: #954a4a"/>

   </g>

   <g id="patch_36">

    <path d="M 134.5995 149.4495

L 151.9605 149.4495

L 151.9605 166.8105

L 134.5995 166.8105

z

" clip-path="url(#pcf9522003d)" style="fill: #954a4a"/>

   </g>

   <g id="patch_37">

    <path d="M 134.5995 168.7395

L 151.9605 168.7395

L 151.9605 186.1005

L 134.5995 186.1005

z

" clip-path="url(#pcf9522003d)" style="fill: #954a4a"/>

   </g>

   <g id="patch_38">

    <path d="M 134.5995 188.0295

L 151.9605 188.0295

L 151.9605 205.3905

L 134.5995 205.3905

z

" clip-path="url(#pcf9522003d)" style="fill: #954a4a"/>

   </g>

   <g id="patch_39">

    <path d="M 134.5995 207.3195

L 151.9605 207.3195

L 151.9605 224.6805

L 134.5995 224.6805

z

" clip-path="url(#pcf9522003d)" style="fill: #954a4a"/>

   </g>

   <g id="patch_40">

    <path d="M 134.5995 226.6095

L 151.9605 226.6095

L 151.9605 243.9705

L 134.5995 243.9705

z

" clip-path="url(#pcf9522003d)" style="fill: #954a4a"/>

   </g>

   <g id="patch_41">

    <path d="M 134.5995 245.8995

L 151.9605 245.8995

L 151.9605 263.2605

L 134.5995 263.2605

z

" clip-path="url(#pcf9522003d)" style="fill: #954a4a"/>

   </g>

   <g id="patch_42">

    <path d="M 134.5995 265.1895

L 151.9605 265.1895

L 151.9605 282.5505

L 134.5995 282.5505

z

" clip-path="url(#pcf9522003d)" style="fill: #e0da22"/>

   </g>

   <g id="patch_43">

    <path d="M 153.8895 149.4495

L 171.2505 149.4495

L 171.2505 166.8105

L 153.8895 166.8105

z

" clip-path="url(#pcf9522003d)" style="fill: #954a4a"/>

   </g>

   <g id="patch_44">

    <path d="M 153.8895 168.7395

L 171.2505 168.7395

L 171.2505 186.1005

L 153.8895 186.1005

z

" clip-path="url(#pcf9522003d)" style="fill: #954a4a"/>

   </g>

   <g id="patch_45">

    <path d="M 153.8895 188.0295

L 171.2505 188.0295

L 171.2505 205.3905

L 153.8895 205.3905

z

" clip-path="url(#pcf9522003d)" style="fill: #954a4a"/>

   </g>

   <g id="patch_46">

    <path d="M 153.8895 207.3195

L 171.2505 207.3195

L 171.2505 224.6805

L 153.8895 224.6805

z

" clip-path="url(#pcf9522003d)" style="fill: #954a4a"/>

   </g>

   <g id="patch_47">

    <path d="M 153.8895 226.6095

L 171.2505 226.6095

L 171.2505 243.9705

L 153.8895 243.9705

z

" clip-path="url(#pcf9522003d)" style="fill: #954a4a"/>

   </g>

   <g id="patch_48">

    <path d="M 153.8895 245.8995

L 171.2505 245.8995

L 171.2505 263.2605

L 153.8895 263.2605

z

" clip-path="url(#pcf9522003d)" style="fill: #954a4a"/>

   </g>

   <g id="patch_49">

    <path d="M 153.8895 265.1895

L 171.2505 265.1895

L 171.2505 282.5505

L 153.8895 282.5505

z

" clip-path="url(#pcf9522003d)" style="fill: #954a4a"/>

   </g>

   <g id="patch_50">

    <path d="M 173.1795 149.4495

L 190.5405 149.4495

L 190.5405 166.8105

L 173.1795 166.8105

z

" clip-path="url(#pcf9522003d)" style="fill: #954a4a"/>

   </g>

   <g id="patch_51">

    <path d="M 173.1795 168.7395

L 190.5405 168.7395

L 190.5405 186.1005

L 173.1795 186.1005

z

" clip-path="url(#pcf9522003d)" style="fill: #954a4a"/>

   </g>

   <g id="patch_52">

    <path d="M 173.1795 188.0295

L 190.5405 188.0295

L 190.5405 205.3905

L 173.1795 205.3905

z

" clip-path="url(#pcf9522003d)" style="fill: #954a4a"/>

   </g>

   <g id="patch_53">

    <path d="M 173.1795 207.3195

L 190.5405 207.3195

L 190.5405 224.6805

L 173.1795 224.6805

z

" clip-path="url(#pcf9522003d)" style="fill: #954a4a"/>

   </g>

   <g id="patch_54">

    <path d="M 173.1795 226.6095

L 190.5405 226.6095

L 190.5405 243.9705

L 173.1795 243.9705

z

" clip-path="url(#pcf9522003d)" style="fill: #954a4a"/>

   </g>

   <g id="patch_55">

    <path d="M 173.1795 245.8995

L 190.5405 245.8995

L 190.5405 263.2605

L 173.1795 263.2605

z

" clip-path="url(#pcf9522003d)" style="fill: #954a4a"/>

   </g>

   <g id="patch_56">

    <path d="M 173.1795 265.1895

L 190.5405 265.1895

L 190.5405 282.5505

L 173.1795 282.5505

z

" clip-path="url(#pcf9522003d)" style="fill: #954a4a"/>

   </g>

   <g id="patch_57">

    <path d="M 192.4695 149.4495

L 209.8305 149.4495

L 209.8305 166.8105

L 192.4695 166.8105

z

" clip-path="url(#pcf9522003d)" style="fill: #954a4a"/>

   </g>

   <g id="patch_58">

    <path d="M 192.4695 168.7395

L 209.8305 168.7395

L 209.8305 186.1005

L 192.4695 186.1005

z

" clip-path="url(#pcf9522003d)" style="fill: #954a4a"/>

   </g>

   <g id="patch_59">

    <path d="M 192.4695 188.0295

L 209.8305 188.0295

L 209.8305 205.3905

L 192.4695 205.3905

z

" clip-path="url(#pcf9522003d)" style="fill: #954a4a"/>

   </g>

   <g id="patch_60">

    <path d="M 192.4695 207.3195

L 209.8305 207.3195

L 209.8305 224.6805

L 192.4695 224.6805

z

" clip-path="url(#pcf9522003d)" style="fill: #954a4a"/>

   </g>

   <g id="patch_61">

    <path d="M 192.4695 226.6095

L 209.8305 226.6095

L 209.8305 243.9705

L 192.4695 243.9705

z

" clip-path="url(#pcf9522003d)" style="fill: #954a4a"/>

   </g>

   <g id="patch_62">

    <path d="M 192.4695 245.8995

L 209.8305 245.8995

L 209.8305 263.2605

L 192.4695 263.2605

z

" clip-path="url(#pcf9522003d)" style="fill: #954a4a"/>

   </g>

   <g id="patch_63">

    <path d="M 192.4695 265.1895

L 209.8305 265.1895

L 209.8305 282.5505

L 192.4695 282.5505

z

" clip-path="url(#pcf9522003d)" style="fill: #954a4a"/>

   </g>

   <g id="patch_64">

    <path d="M 211.7595 149.4495

L 229.1205 149.4495

L 229.1205 166.8105

L 211.7595 166.8105

z

" clip-path="url(#pcf9522003d)" style="fill: #954a4a"/>

   </g>

   <g id="patch_65">

    <path d="M 211.7595 168.7395

L 229.1205 168.7395

L 229.1205 186.1005

L 211.7595 186.1005

z

" clip-path="url(#pcf9522003d)" style="fill: #954a4a"/>

   </g>

   <g id="patch_66">

    <path d="M 211.7595 188.0295

L 229.1205 188.0295

L 229.1205 205.3905

L 211.7595 205.3905

z

" clip-path="url(#pcf9522003d)" style="fill: #954a4a"/>

   </g>

   <g id="patch_67">

    <path d="M 211.7595 207.3195

L 229.1205 207.3195

L 229.1205 224.6805

L 211.7595 224.6805

z

" clip-path="url(#pcf9522003d)" style="fill: #954a4a"/>

   </g>

   <g id="patch_68">

    <path d="M 211.7595 226.6095

L 229.1205 226.6095

L 229.1205 243.9705

L 211.7595 243.9705

z

" clip-path="url(#pcf9522003d)" style="fill: #954a4a"/>

   </g>

   <g id="patch_69">

    <path d="M 211.7595 245.8995

L 229.1205 245.8995

L 229.1205 263.2605

L 211.7595 263.2605

z

" clip-path="url(#pcf9522003d)" style="fill: #954a4a"/>

   </g>

   <g id="patch_70">

    <path d="M 211.7595 265.1895

L 229.1205 265.1895

L 229.1205 282.5505

L 211.7595 282.5505

z

" clip-path="url(#pcf9522003d)" style="fill: #954a4a"/>

   </g>

   <g id="patch_71">

    <path d="M 231.0495 149.4495

L 248.4105 149.4495

L 248.4105 166.8105

L 231.0495 166.8105

z

" clip-path="url(#pcf9522003d)" style="fill: #954a4a"/>

   </g>

   <g id="patch_72">

    <path d="M 231.0495 168.7395

L 248.4105 168.7395

L 248.4105 186.1005

L 231.0495 186.1005

z

" clip-path="url(#pcf9522003d)" style="fill: #954a4a"/>

   </g>

   <g id="patch_73">

    <path d="M 231.0495 188.0295

L 248.4105 188.0295

L 248.4105 205.3905

L 231.0495 205.3905

z

" clip-path="url(#pcf9522003d)" style="fill: #954a4a"/>

   </g>

   <g id="patch_74">

    <path d="M 231.0495 207.3195

L 248.4105 207.3195

L 248.4105 224.6805

L 231.0495 224.6805

z

" clip-path="url(#pcf9522003d)" style="fill: #954a4a"/>

   </g>

   <g id="patch_75">

    <path d="M 231.0495 226.6095

L 248.4105 226.6095

L 248.4105 243.9705

L 231.0495 243.9705

z

" clip-path="url(#pcf9522003d)" style="fill: #954a4a"/>

   </g>

   <g id="patch_76">

    <path d="M 231.0495 245.8995

L 248.4105 245.8995

L 248.4105 263.2605

L 231.0495 263.2605

z

" clip-path="url(#pcf9522003d)" style="fill: #954a4a"/>

   </g>

   <g id="patch_77">

    <path d="M 231.0495 265.1895

L 248.4105 265.1895

L 248.4105 282.5505

L 231.0495 282.5505

z

" clip-path="url(#pcf9522003d)" style="fill: #954a4a"/>

   </g>

   <g id="patch_78">

    <path d="M 250.3395 149.4495

L 267.7005 149.4495

L 267.7005 166.8105

L 250.3395 166.8105

z

" clip-path="url(#pcf9522003d)" style="fill: #954a4a"/>

   </g>

   <g id="patch_79">

    <path d="M 250.3395 168.7395

L 267.7005 168.7395

L 267.7005 186.1005

L 250.3395 186.1005

z

" clip-path="url(#pcf9522003d)" style="fill: #954a4a"/>

   </g>

   <g id="patch_80">

    <path d="M 250.3395 188.0295

L 267.7005 188.0295

L 267.7005 205.3905

L 250.3395 205.3905

z

" clip-path="url(#pcf9522003d)" style="fill: #954a4a"/>

   </g>

   <g id="patch_81">

    <path d="M 250.3395 207.3195

L 267.7005 207.3195

L 267.7005 224.6805

L 250.3395 224.6805

z

" clip-path="url(#pcf9522003d)" style="fill: #954a4a"/>

   </g>

   <g id="patch_82">

    <path d="M 250.3395 226.6095

L 267.7005 226.6095

L 267.7005 243.9705

L 250.3395 243.9705

z

" clip-path="url(#pcf9522003d)" style="fill: #954a4a"/>

   </g>

   <g id="patch_83">

    <path d="M 250.3395 245.8995

L 267.7005 245.8995

L 267.7005 263.2605

L 250.3395 263.2605

z

" clip-path="url(#pcf9522003d)" style="fill: #954a4a"/>

   </g>

   <g id="patch_84">

    <path d="M 250.3395 265.1895

L 267.7005 265.1895

L 267.7005 282.5505

L 250.3395 282.5505

z

" clip-path="url(#pcf9522003d)" style="fill: #954a4a"/>

   </g>

   <g id="patch_85">

    <path d="M 269.6295 149.4495

L 286.9905 149.4495

L 286.9905 166.8105

L 269.6295 166.8105

z

" clip-path="url(#pcf9522003d)" style="fill: #954a4a"/>

   </g>

   <g id="patch_86">

    <path d="M 269.6295 168.7395

L 286.9905 168.7395

L 286.9905 186.1005

L 269.6295 186.1005

z

" clip-path="url(#pcf9522003d)" style="fill: #954a4a"/>

   </g>

   <g id="patch_87">

    <path d="M 269.6295 188.0295

L 286.9905 188.0295

L 286.9905 205.3905

L 269.6295 205.3905

z

" clip-path="url(#pcf9522003d)" style="fill: #954a4a"/>

   </g>

   <g id="patch_88">

    <path d="M 269.6295 207.3195

L 286.9905 207.3195

L 286.9905 224.6805

L 269.6295 224.6805

z

" clip-path="url(#pcf9522003d)" style="fill: #954a4a"/>

   </g>

   <g id="patch_89">

    <path d="M 269.6295 226.6095

L 286.9905 226.6095

L 286.9905 243.9705

L 269.6295 243.9705

z

" clip-path="url(#pcf9522003d)" style="fill: #954a4a"/>

   </g>

   <g id="patch_90">

    <path d="M 269.6295 245.8995

L 286.9905 245.8995

L 286.9905 263.2605

L 269.6295 263.2605

z

" clip-path="url(#pcf9522003d)" style="fill: #954a4a"/>

   </g>

   <g id="patch_91">

    <path d="M 269.6295 265.1895

L 286.9905 265.1895

L 286.9905 282.5505

L 269.6295 282.5505

z

" clip-path="url(#pcf9522003d)" style="fill: #954a4a"/>

   </g>

   <g id="patch_92">

    <path d="M 288.9195 149.4495

L 306.2805 149.4495

L 306.2805 166.8105

L 288.9195 166.8105

z

" clip-path="url(#pcf9522003d)" style="fill: #954a4a"/>

   </g>

   <g id="patch_93">

    <path d="M 288.9195 168.7395

L 306.2805 168.7395

L 306.2805 186.1005

L 288.9195 186.1005

z

" clip-path="url(#pcf9522003d)" style="fill: #954a4a"/>

   </g>

   <g id="patch_94">

    <path d="M 288.9195 188.0295

L 306.2805 188.0295

L 306.2805 205.3905

L 288.9195 205.3905

z

" clip-path="url(#pcf9522003d)" style="fill: #954a4a"/>

   </g>

   <g id="patch_95">

    <path d="M 288.9195 207.3195

L 306.2805 207.3195

L 306.2805 224.6805

L 288.9195 224.6805

z

" clip-path="url(#pcf9522003d)" style="fill: #954a4a"/>

   </g>

   <g id="patch_96">

    <path d="M 288.9195 226.6095

L 306.2805 226.6095

L 306.2805 243.9705

L 288.9195 243.9705

z

" clip-path="url(#pcf9522003d)" style="fill: #954a4a"/>

   </g>

   <g id="patch_97">

    <path d="M 288.9195 245.8995

L 306.2805 245.8995

L 306.2805 263.2605

L 288.9195 263.2605

z

" clip-path="url(#pcf9522003d)" style="fill: #954a4a"/>

   </g>

   <g id="patch_98">

    <path d="M 288.9195 265.1895

L 306.2805 265.1895

L 306.2805 282.5505

L 288.9195 282.5505

z

" clip-path="url(#pcf9522003d)" style="fill: #954a4a"/>

   </g>

   <g id="patch_99">

    <path d="M 308.2095 149.4495

L 325.5705 149.4495

L 325.5705 166.8105

L 308.2095 166.8105

z

" clip-path="url(#pcf9522003d)" style="fill: #954a4a"/>

   </g>

   <g id="patch_100">

    <path d="M 308.2095 168.7395

L 325.5705 168.7395

L 325.5705 186.1005

L 308.2095 186.1005

z

" clip-path="url(#pcf9522003d)" style="fill: #954a4a"/>

   </g>

   <g id="patch_101">

    <path d="M 308.2095 188.0295

L 325.5705 188.0295

L 325.5705 205.3905

L 308.2095 205.3905

z

" clip-path="url(#pcf9522003d)" style="fill: #954a4a"/>

   </g>

   <g id="patch_102">

    <path d="M 308.2095 207.3195

L 325.5705 207.3195

L 325.5705 224.6805

L 308.2095 224.6805

z

" clip-path="url(#pcf9522003d)" style="fill: #954a4a"/>

   </g>

   <g id="patch_103">

    <path d="M 308.2095 226.6095

L 325.5705 226.6095

L 325.5705 243.9705

L 308.2095 243.9705

z

" clip-path="url(#pcf9522003d)" style="fill: #954a4a"/>

   </g>

   <g id="patch_104">

    <path d="M 308.2095 245.8995

L 325.5705 245.8995

L 325.5705 263.2605

L 308.2095 263.2605

z

" clip-path="url(#pcf9522003d)" style="fill: #954a4a"/>

   </g>

   <g id="patch_105">

    <path d="M 308.2095 265.1895

L 325.5705 265.1895

L 325.5705 282.5505

L 308.2095 282.5505

z

" clip-path="url(#pcf9522003d)" style="fill: #954a4a"/>

   </g>

   <g id="patch_106">

    <path d="M 327.4995 149.4495

L 344.8605 149.4495

L 344.8605 166.8105

L 327.4995 166.8105

z

" clip-path="url(#pcf9522003d)" style="fill: #954a4a"/>

   </g>

   <g id="patch_107">

    <path d="M 327.4995 168.7395

L 344.8605 168.7395

L 344.8605 186.1005

L 327.4995 186.1005

z

" clip-path="url(#pcf9522003d)" style="fill: #954a4a"/>

   </g>

   <g id="patch_108">

    <path d="M 327.4995 188.0295

L 344.8605 188.0295

L 344.8605 205.3905

L 327.4995 205.3905

z

" clip-path="url(#pcf9522003d)" style="fill: #954a4a"/>

   </g>

   <g id="patch_109">

    <path d="M 327.4995 207.3195

L 344.8605 207.3195

L 344.8605 224.6805

L 327.4995 224.6805

z

" clip-path="url(#pcf9522003d)" style="fill: #954a4a"/>

   </g>

   <g id="patch_110">

    <path d="M 327.4995 226.6095

L 344.8605 226.6095

L 344.8605 243.9705

L 327.4995 243.9705

z

" clip-path="url(#pcf9522003d)" style="fill: #954a4a"/>

   </g>

   <g id="patch_111">

    <path d="M 327.4995 245.8995

L 344.8605 245.8995

L 344.8605 263.2605

L 327.4995 263.2605

z

" clip-path="url(#pcf9522003d)" style="fill: #954a4a"/>

   </g>

   <g id="patch_112">

    <path d="M 327.4995 265.1895

L 344.8605 265.1895

L 344.8605 282.5505

L 327.4995 282.5505

z

" clip-path="url(#pcf9522003d)" style="fill: #954a4a"/>

   </g>

   <g id="patch_113">

    <path d="M 346.7895 149.4495

L 364.1505 149.4495

L 364.1505 166.8105

L 346.7895 166.8105

z

" clip-path="url(#pcf9522003d)" style="fill: #954a4a"/>

   </g>

   <g id="patch_114">

    <path d="M 346.7895 168.7395

L 364.1505 168.7395

L 364.1505 186.1005

L 346.7895 186.1005

z

" clip-path="url(#pcf9522003d)" style="fill: #954a4a"/>

   </g>

   <g id="patch_115">

    <path d="M 346.7895 188.0295

L 364.1505 188.0295

L 364.1505 205.3905

L 346.7895 205.3905

z

" clip-path="url(#pcf9522003d)" style="fill: #954a4a"/>

   </g>

   <g id="patch_116">

    <path d="M 346.7895 207.3195

L 364.1505 207.3195

L 364.1505 224.6805

L 346.7895 224.6805

z

" clip-path="url(#pcf9522003d)" style="fill: #954a4a"/>

   </g>

   <g id="patch_117">

    <path d="M 346.7895 226.6095

L 364.1505 226.6095

L 364.1505 243.9705

L 346.7895 243.9705

z

" clip-path="url(#pcf9522003d)" style="fill: #954a4a"/>

   </g>

   <g id="patch_118">

    <path d="M 346.7895 245.8995

L 364.1505 245.8995

L 364.1505 263.2605

L 346.7895 263.2605

z

" clip-path="url(#pcf9522003d)" style="fill: #954a4a"/>

   </g>

   <g id="patch_119">

    <path d="M 346.7895 265.1895

L 364.1505 265.1895

L 364.1505 282.5505

L 346.7895 282.5505

z

" clip-path="url(#pcf9522003d)" style="fill: #954a4a"/>

   </g>

   <g id="patch_120">

    <path d="M 366.0795 149.4495

L 383.4405 149.4495

L 383.4405 166.8105

L 366.0795 166.8105

z

" clip-path="url(#pcf9522003d)" style="fill: #954a4a"/>

   </g>

   <g id="patch_121">

    <path d="M 366.0795 168.7395

L 383.4405 168.7395

L 383.4405 186.1005

L 366.0795 186.1005

z

" clip-path="url(#pcf9522003d)" style="fill: #954a4a"/>

   </g>

   <g id="patch_122">

    <path d="M 366.0795 188.0295

L 383.4405 188.0295

L 383.4405 205.3905

L 366.0795 205.3905

z

" clip-path="url(#pcf9522003d)" style="fill: #954a4a"/>

   </g>

   <g id="patch_123">

    <path d="M 366.0795 207.3195

L 383.4405 207.3195

L 383.4405 224.6805

L 366.0795 224.6805

z

" clip-path="url(#pcf9522003d)" style="fill: #954a4a"/>

   </g>

   <g id="patch_124">

    <path d="M 366.0795 226.6095

L 383.4405 226.6095

L 383.4405 243.9705

L 366.0795 243.9705

z

" clip-path="url(#pcf9522003d)" style="fill: #954a4a"/>

   </g>

   <g id="patch_125">

    <path d="M 366.0795 245.8995

L 383.4405 245.8995

L 383.4405 263.2605

L 366.0795 263.2605

z

" clip-path="url(#pcf9522003d)" style="fill: #954a4a"/>

   </g>

   <g id="patch_126">

    <path d="M 366.0795 265.1895

L 383.4405 265.1895

L 383.4405 282.5505

L 366.0795 282.5505

z

" clip-path="url(#pcf9522003d)" style="fill: #954a4a"/>

   </g>

   <g id="patch_127">

    <path d="M 385.3695 149.4495

L 402.7305 149.4495

L 402.7305 166.8105

L 385.3695 166.8105

z

" clip-path="url(#pcf9522003d)" style="fill: #954a4a"/>

   </g>

   <g id="patch_128">

    <path d="M 385.3695 168.7395

L 402.7305 168.7395

L 402.7305 186.1005

L 385.3695 186.1005

z

" clip-path="url(#pcf9522003d)" style="fill: #954a4a"/>

   </g>

   <g id="patch_129">

    <path d="M 385.3695 188.0295

L 402.7305 188.0295

L 402.7305 205.3905

L 385.3695 205.3905

z

" clip-path="url(#pcf9522003d)" style="fill: #954a4a"/>

   </g>

   <g id="patch_130">

    <path d="M 385.3695 207.3195

L 402.7305 207.3195

L 402.7305 224.6805

L 385.3695 224.6805

z

" clip-path="url(#pcf9522003d)" style="fill: #954a4a"/>

   </g>

   <g id="patch_131">

    <path d="M 385.3695 226.6095

L 402.7305 226.6095

L 402.7305 243.9705

L 385.3695 243.9705

z

" clip-path="url(#pcf9522003d)" style="fill: #954a4a"/>

   </g>

   <g id="patch_132">

    <path d="M 385.3695 245.8995

L 402.7305 245.8995

L 402.7305 263.2605

L 385.3695 263.2605

z

" clip-path="url(#pcf9522003d)" style="fill: #954a4a"/>

   </g>

   <g id="patch_133">

    <path d="M 385.3695 265.1895

L 402.7305 265.1895

L 402.7305 282.5505

L 385.3695 282.5505

z

" clip-path="url(#pcf9522003d)" style="fill: #954a4a"/>

   </g>

   <g id="patch_134">

    <path d="M 404.6595 149.4495

L 422.0205 149.4495

L 422.0205 166.8105

L 404.6595 166.8105

z

" clip-path="url(#pcf9522003d)" style="fill: #954a4a"/>

   </g>

   <g id="patch_135">

    <path d="M 404.6595 168.7395

L 422.0205 168.7395

L 422.0205 186.1005

L 404.6595 186.1005

z

" clip-path="url(#pcf9522003d)" style="fill: #954a4a"/>

   </g>

   <g id="patch_136">

    <path d="M 404.6595 188.0295

L 422.0205 188.0295

L 422.0205 205.3905

L 404.6595 205.3905

z

" clip-path="url(#pcf9522003d)" style="fill: #954a4a"/>

   </g>

   <g id="patch_137">

    <path d="M 404.6595 207.3195

L 422.0205 207.3195

L 422.0205 224.6805

L 404.6595 224.6805

z

" clip-path="url(#pcf9522003d)" style="fill: #954a4a"/>

   </g>

   <g id="patch_138">

    <path d="M 404.6595 226.6095

L 422.0205 226.6095

L 422.0205 243.9705

L 404.6595 243.9705

z

" clip-path="url(#pcf9522003d)" style="fill: #954a4a"/>

   </g>

   <g id="patch_139">

    <path d="M 404.6595 245.8995

L 422.0205 245.8995

L 422.0205 263.2605

L 404.6595 263.2605

z

" clip-path="url(#pcf9522003d)" style="fill: #954a4a"/>

   </g>

   <g id="patch_140">

    <path d="M 404.6595 265.1895

L 422.0205 265.1895

L 422.0205 282.5505

L 404.6595 282.5505

z

" clip-path="url(#pcf9522003d)" style="fill: #954a4a"/>

   </g>

   <g id="patch_141">

    <path d="M 423.9495 149.4495

L 441.3105 149.4495

L 441.3105 166.8105

L 423.9495 166.8105

z

" clip-path="url(#pcf9522003d)" style="fill: #954a4a"/>

   </g>

   <g id="patch_142">

    <path d="M 423.9495 168.7395

L 441.3105 168.7395

L 441.3105 186.1005

L 423.9495 186.1005

z

" clip-path="url(#pcf9522003d)" style="fill: #954a4a"/>

   </g>

   <g id="patch_143">

    <path d="M 423.9495 188.0295

L 441.3105 188.0295

L 441.3105 205.3905

L 423.9495 205.3905

z

" clip-path="url(#pcf9522003d)" style="fill: #954a4a"/>

   </g>

   <g id="patch_144">

    <path d="M 423.9495 207.3195

L 441.3105 207.3195

L 441.3105 224.6805

L 423.9495 224.6805

z

" clip-path="url(#pcf9522003d)" style="fill: #954a4a"/>

   </g>

   <g id="patch_145">

    <path d="M 423.9495 226.6095

L 441.3105 226.6095

L 441.3105 243.9705

L 423.9495 243.9705

z

" clip-path="url(#pcf9522003d)" style="fill: #954a4a"/>

   </g>

   <g id="patch_146">

    <path d="M 423.9495 245.8995

L 441.3105 245.8995

L 441.3105 263.2605

L 423.9495 263.2605

z

" clip-path="url(#pcf9522003d)" style="fill: #954a4a"/>

   </g>

   <g id="patch_147">

    <path d="M 423.9495 265.1895

L 441.3105 265.1895

L 441.3105 282.5505

L 423.9495 282.5505

z

" clip-path="url(#pcf9522003d)" style="fill: #954a4a"/>

   </g>

   <g id="patch_148">

    <path d="M 443.2395 149.4495

L 460.6005 149.4495

L 460.6005 166.8105

L 443.2395 166.8105

z

" clip-path="url(#pcf9522003d)" style="fill: #954a4a"/>

   </g>

   <g id="patch_149">

    <path d="M 443.2395 168.7395

L 460.6005 168.7395

L 460.6005 186.1005

L 443.2395 186.1005

z

" clip-path="url(#pcf9522003d)" style="fill: #954a4a"/>

   </g>

   <g id="patch_150">

    <path d="M 443.2395 188.0295

L 460.6005 188.0295

L 460.6005 205.3905

L 443.2395 205.3905

z

" clip-path="url(#pcf9522003d)" style="fill: #954a4a"/>

   </g>

   <g id="patch_151">

    <path d="M 443.2395 207.3195

L 460.6005 207.3195

L 460.6005 224.6805

L 443.2395 224.6805

z

" clip-path="url(#pcf9522003d)" style="fill: #954a4a"/>

   </g>

   <g id="patch_152">

    <path d="M 443.2395 226.6095

L 460.6005 226.6095

L 460.6005 243.9705

L 443.2395 243.9705

z

" clip-path="url(#pcf9522003d)" style="fill: #954a4a"/>

   </g>

   <g id="patch_153">

    <path d="M 443.2395 245.8995

L 460.6005 245.8995

L 460.6005 263.2605

L 443.2395 263.2605

z

" clip-path="url(#pcf9522003d)" style="fill: #954a4a"/>

   </g>

   <g id="patch_154">

    <path d="M 443.2395 265.1895

L 460.6005 265.1895

L 460.6005 282.5505

L 443.2395 282.5505

z

" clip-path="url(#pcf9522003d)" style="fill: #954a4a"/>

   </g>

   <g id="patch_155">

    <path d="M 462.5295 149.4495

L 479.8905 149.4495

L 479.8905 166.8105

L 462.5295 166.8105

z

" clip-path="url(#pcf9522003d)" style="fill: #954a4a"/>

   </g>

   <g id="patch_156">

    <path d="M 462.5295 168.7395

L 479.8905 168.7395

L 479.8905 186.1005

L 462.5295 186.1005

z

" clip-path="url(#pcf9522003d)" style="fill: #954a4a"/>

   </g>

   <g id="patch_157">

    <path d="M 462.5295 188.0295

L 479.8905 188.0295

L 479.8905 205.3905

L 462.5295 205.3905

z

" clip-path="url(#pcf9522003d)" style="fill: #8c8c7e"/>

   </g>

   <g id="patch_158">

    <path d="M 462.5295 207.3195

L 479.8905 207.3195

L 479.8905 224.6805

L 462.5295 224.6805

z

" clip-path="url(#pcf9522003d)" style="fill: #954a4a"/>

   </g>

   <g id="patch_159">

    <path d="M 462.5295 226.6095

L 479.8905 226.6095

L 479.8905 243.9705

L 462.5295 243.9705

z

" clip-path="url(#pcf9522003d)" style="fill: #954a4a"/>

   </g>

   <g id="patch_160">

    <path d="M 462.5295 245.8995

L 479.8905 245.8995

L 479.8905 263.2605

L 462.5295 263.2605

z

" clip-path="url(#pcf9522003d)" style="fill: #954a4a"/>

   </g>

   <g id="patch_161">

    <path d="M 462.5295 265.1895

L 479.8905 265.1895

L 479.8905 282.5505

L 462.5295 282.5505

z

" clip-path="url(#pcf9522003d)" style="fill: #954a4a"/>

   </g>

   <g id="patch_162">

    <path d="M 481.8195 149.4495

L 499.1805 149.4495

L 499.1805 166.8105

L 481.8195 166.8105

z

" clip-path="url(#pcf9522003d)" style="fill: #954a4a"/>

   </g>

   <g id="patch_163">

    <path d="M 481.8195 168.7395

L 499.1805 168.7395

L 499.1805 186.1005

L 481.8195 186.1005

z

" clip-path="url(#pcf9522003d)" style="fill: #954a4a"/>

   </g>

   <g id="patch_164">

    <path d="M 481.8195 188.0295

L 499.1805 188.0295

L 499.1805 205.3905

L 481.8195 205.3905

z

" clip-path="url(#pcf9522003d)" style="fill: #954a4a"/>

   </g>

   <g id="patch_165">

    <path d="M 481.8195 207.3195

L 499.1805 207.3195

L 499.1805 224.6805

L 481.8195 224.6805

z

" clip-path="url(#pcf9522003d)" style="fill: #954a4a"/>

   </g>

   <g id="patch_166">

    <path d="M 481.8195 226.6095

L 499.1805 226.6095

L 499.1805 243.9705

L 481.8195 243.9705

z

" clip-path="url(#pcf9522003d)" style="fill: #954a4a"/>

   </g>

   <g id="patch_167">

    <path d="M 481.8195 245.8995

L 499.1805 245.8995

L 499.1805 263.2605

L 481.8195 263.2605

z

" clip-path="url(#pcf9522003d)" style="fill: #954a4a"/>

   </g>

   <g id="patch_168">

    <path d="M 481.8195 265.1895

L 499.1805 265.1895

L 499.1805 282.5505

L 481.8195 282.5505

z

" clip-path="url(#pcf9522003d)" style="fill: #954a4a"/>

   </g>

   <g id="patch_169">

    <path d="M 501.1095 149.4495

L 518.4705 149.4495

L 518.4705 166.8105

L 501.1095 166.8105

z

" clip-path="url(#pcf9522003d)" style="fill: #954a4a"/>

   </g>

   <g id="patch_170">

    <path d="M 501.1095 168.7395

L 518.4705 168.7395

L 518.4705 186.1005

L 501.1095 186.1005

z

" clip-path="url(#pcf9522003d)" style="fill: #954a4a"/>

   </g>

   <g id="patch_171">

    <path d="M 501.1095 188.0295

L 518.4705 188.0295

L 518.4705 205.3905

L 501.1095 205.3905

z

" clip-path="url(#pcf9522003d)" style="fill: #954a4a"/>

   </g>

   <g id="patch_172">

    <path d="M 501.1095 207.3195

L 518.4705 207.3195

L 518.4705 224.6805

L 501.1095 224.6805

z

" clip-path="url(#pcf9522003d)" style="fill: #954a4a"/>

   </g>

   <g id="patch_173">

    <path d="M 501.1095 226.6095

L 518.4705 226.6095

L 518.4705 243.9705

L 501.1095 243.9705

z

" clip-path="url(#pcf9522003d)" style="fill: #954a4a"/>

   </g>

   <g id="patch_174">

    <path d="M 501.1095 245.8995

L 518.4705 245.8995

L 518.4705 263.2605

L 501.1095 263.2605

z

" clip-path="url(#pcf9522003d)" style="fill: #954a4a"/>

   </g>

   <g id="patch_175">

    <path d="M 501.1095 265.1895

L 518.4705 265.1895

L 518.4705 282.5505

L 501.1095 282.5505

z

" clip-path="url(#pcf9522003d)" style="fill: #954a4a"/>

   </g>

   <g id="patch_176">

    <path d="M 520.3995 149.4495

L 537.7605 149.4495

L 537.7605 166.8105

L 520.3995 166.8105

z

" clip-path="url(#pcf9522003d)" style="fill: #954a4a"/>

   </g>

   <g id="patch_177">

    <path d="M 520.3995 168.7395

L 537.7605 168.7395

L 537.7605 186.1005

L 520.3995 186.1005

z

" clip-path="url(#pcf9522003d)" style="fill: #954a4a"/>

   </g>

   <g id="patch_178">

    <path d="M 520.3995 188.0295

L 537.7605 188.0295

L 537.7605 205.3905

L 520.3995 205.3905

z

" clip-path="url(#pcf9522003d)" style="fill: #954a4a"/>

   </g>

   <g id="patch_179">

    <path d="M 520.3995 207.3195

L 537.7605 207.3195

L 537.7605 224.6805

L 520.3995 224.6805

z

" clip-path="url(#pcf9522003d)" style="fill: #954a4a"/>

   </g>

   <g id="patch_180">

    <path d="M 520.3995 226.6095

L 537.7605 226.6095

L 537.7605 243.9705

L 520.3995 243.9705

z

" clip-path="url(#pcf9522003d)" style="fill: #954a4a"/>

   </g>

   <g id="patch_181">

    <path d="M 520.3995 245.8995

L 537.7605 245.8995

L 537.7605 263.2605

L 520.3995 263.2605

z

" clip-path="url(#pcf9522003d)" style="fill: #954a4a"/>

   </g>

   <g id="patch_182">

    <path d="M 520.3995 265.1895

L 537.7605 265.1895

L 537.7605 282.5505

L 520.3995 282.5505

z

" clip-path="url(#pcf9522003d)" style="fill: #954a4a"/>

   </g>

   <g id="patch_183">

    <path d="M 539.6895 149.4495

L 557.0505 149.4495

L 557.0505 166.8105

L 539.6895 166.8105

z

" clip-path="url(#pcf9522003d)" style="fill: #954a4a"/>

   </g>

   <g id="patch_184">

    <path d="M 539.6895 168.7395

L 557.0505 168.7395

L 557.0505 186.1005

L 539.6895 186.1005

z

" clip-path="url(#pcf9522003d)" style="fill: #954a4a"/>

   </g>

   <g id="patch_185">

    <path d="M 539.6895 188.0295

L 557.0505 188.0295

L 557.0505 205.3905

L 539.6895 205.3905

z

" clip-path="url(#pcf9522003d)" style="fill: #954a4a"/>

   </g>

   <g id="patch_186">

    <path d="M 539.6895 207.3195

L 557.0505 207.3195

L 557.0505 224.6805

L 539.6895 224.6805

z

" clip-path="url(#pcf9522003d)" style="fill: #954a4a"/>

   </g>

   <g id="patch_187">

    <path d="M 539.6895 226.6095

L 557.0505 226.6095

L 557.0505 243.9705

L 539.6895 243.9705

z

" clip-path="url(#pcf9522003d)" style="fill: #954a4a"/>

   </g>

   <g id="patch_188">

    <path d="M 539.6895 245.8995

L 557.0505 245.8995

L 557.0505 263.2605

L 539.6895 263.2605

z

" clip-path="url(#pcf9522003d)" style="fill: #954a4a"/>

   </g>

   <g id="patch_189">

    <path d="M 539.6895 265.1895

L 557.0505 265.1895

L 557.0505 282.5505

L 539.6895 282.5505

z

" clip-path="url(#pcf9522003d)" style="fill: #954a4a"/>

   </g>

   <g id="patch_190">

    <path d="M 558.9795 149.4495

L 576.3405 149.4495

L 576.3405 166.8105

L 558.9795 166.8105

z

" clip-path="url(#pcf9522003d)" style="fill: #954a4a"/>

   </g>

   <g id="patch_191">

    <path d="M 558.9795 168.7395

L 576.3405 168.7395

L 576.3405 186.1005

L 558.9795 186.1005

z

" clip-path="url(#pcf9522003d)" style="fill: #954a4a"/>

   </g>

   <g id="patch_192">

    <path d="M 558.9795 188.0295

L 576.3405 188.0295

L 576.3405 205.3905

L 558.9795 205.3905

z

" clip-path="url(#pcf9522003d)" style="fill: #954a4a"/>

   </g>

   <g id="patch_193">

    <path d="M 558.9795 207.3195

L 576.3405 207.3195

L 576.3405 224.6805

L 558.9795 224.6805

z

" clip-path="url(#pcf9522003d)" style="fill: #954a4a"/>

   </g>

   <g id="patch_194">

    <path d="M 558.9795 226.6095

L 576.3405 226.6095

L 576.3405 243.9705

L 558.9795 243.9705

z

" clip-path="url(#pcf9522003d)" style="fill: #954a4a"/>

   </g>

   <g id="patch_195">

    <path d="M 558.9795 245.8995

L 576.3405 245.8995

L 576.3405 263.2605

L 558.9795 263.2605

z

" clip-path="url(#pcf9522003d)" style="fill: #954a4a"/>

   </g>

   <g id="patch_196">

    <path d="M 558.9795 265.1895

L 576.3405 265.1895

L 576.3405 282.5505

L 558.9795 282.5505

z

" clip-path="url(#pcf9522003d)" style="fill: #954a4a"/>

   </g>

   <g id="patch_197">

    <path d="M 578.2695 149.4495

L 595.6305 149.4495

L 595.6305 166.8105

L 578.2695 166.8105

z

" clip-path="url(#pcf9522003d)" style="fill: #954a4a"/>

   </g>

   <g id="patch_198">

    <path d="M 578.2695 168.7395

L 595.6305 168.7395

L 595.6305 186.1005

L 578.2695 186.1005

z

" clip-path="url(#pcf9522003d)" style="fill: #954a4a"/>

   </g>

   <g id="patch_199">

    <path d="M 578.2695 188.0295

L 595.6305 188.0295

L 595.6305 205.3905

L 578.2695 205.3905

z

" clip-path="url(#pcf9522003d)" style="fill: #954a4a"/>

   </g>

   <g id="patch_200">

    <path d="M 578.2695 207.3195

L 595.6305 207.3195

L 595.6305 224.6805

L 578.2695 224.6805

z

" clip-path="url(#pcf9522003d)" style="fill: #954a4a"/>

   </g>

   <g id="patch_201">

    <path d="M 578.2695 226.6095

L 595.6305 226.6095

L 595.6305 243.9705

L 578.2695 243.9705

z

" clip-path="url(#pcf9522003d)" style="fill: #954a4a"/>

   </g>

   <g id="patch_202">

    <path d="M 578.2695 245.8995

L 595.6305 245.8995

L 595.6305 263.2605

L 578.2695 263.2605

z

" clip-path="url(#pcf9522003d)" style="fill: #954a4a"/>

   </g>

   <g id="patch_203">

    <path d="M 578.2695 265.1895

L 595.6305 265.1895

L 595.6305 282.5505

L 578.2695 282.5505

z

" clip-path="url(#pcf9522003d)" style="fill: #954a4a"/>

   </g>

   <g id="patch_204">

    <path d="M 597.5595 149.4495

L 614.9205 149.4495

L 614.9205 166.8105

L 597.5595 166.8105

z

" clip-path="url(#pcf9522003d)" style="fill: #954a4a"/>

   </g>

   <g id="patch_205">

    <path d="M 597.5595 168.7395

L 614.9205 168.7395

L 614.9205 186.1005

L 597.5595 186.1005

z

" clip-path="url(#pcf9522003d)" style="fill: #954a4a"/>

   </g>

   <g id="patch_206">

    <path d="M 597.5595 188.0295

L 614.9205 188.0295

L 614.9205 205.3905

L 597.5595 205.3905

z

" clip-path="url(#pcf9522003d)" style="fill: #954a4a"/>

   </g>

   <g id="patch_207">

    <path d="M 597.5595 207.3195

L 614.9205 207.3195

L 614.9205 224.6805

L 597.5595 224.6805

z

" clip-path="url(#pcf9522003d)" style="fill: #954a4a"/>

   </g>

   <g id="patch_208">

    <path d="M 597.5595 226.6095

L 614.9205 226.6095

L 614.9205 243.9705

L 597.5595 243.9705

z

" clip-path="url(#pcf9522003d)" style="fill: #954a4a"/>

   </g>

   <g id="patch_209">

    <path d="M 597.5595 245.8995

L 614.9205 245.8995

L 614.9205 263.2605

L 597.5595 263.2605

z

" clip-path="url(#pcf9522003d)" style="fill: #954a4a"/>

   </g>

   <g id="patch_210">

    <path d="M 597.5595 265.1895

L 614.9205 265.1895

L 614.9205 282.5505

L 597.5595 282.5505

z

" clip-path="url(#pcf9522003d)" style="fill: #954a4a"/>

   </g>

   <g id="patch_211">

    <path d="M 616.8495 149.4495

L 634.2105 149.4495

L 634.2105 166.8105

L 616.8495 166.8105

z

" clip-path="url(#pcf9522003d)" style="fill: #954a4a"/>

   </g>

   <g id="patch_212">

    <path d="M 616.8495 168.7395

L 634.2105 168.7395

L 634.2105 186.1005

L 616.8495 186.1005

z

" clip-path="url(#pcf9522003d)" style="fill: #954a4a"/>

   </g>

   <g id="patch_213">

    <path d="M 616.8495 188.0295

L 634.2105 188.0295

L 634.2105 205.3905

L 616.8495 205.3905

z

" clip-path="url(#pcf9522003d)" style="fill: #954a4a"/>

   </g>

   <g id="patch_214">

    <path d="M 616.8495 207.3195

L 634.2105 207.3195

L 634.2105 224.6805

L 616.8495 224.6805

z

" clip-path="url(#pcf9522003d)" style="fill: #954a4a"/>

   </g>

   <g id="patch_215">

    <path d="M 616.8495 226.6095

L 634.2105 226.6095

L 634.2105 243.9705

L 616.8495 243.9705

z

" clip-path="url(#pcf9522003d)" style="fill: #954a4a"/>

   </g>

   <g id="patch_216">

    <path d="M 616.8495 245.8995

L 634.2105 245.8995

L 634.2105 263.2605

L 616.8495 263.2605

z

" clip-path="url(#pcf9522003d)" style="fill: #954a4a"/>

   </g>

   <g id="patch_217">

    <path d="M 616.8495 265.1895

L 634.2105 265.1895

L 634.2105 282.5505

L 616.8495 282.5505

z

" clip-path="url(#pcf9522003d)" style="fill: #954a4a"/>

   </g>

   <g id="patch_218">

    <path d="M 636.1395 149.4495

L 653.5005 149.4495

L 653.5005 166.8105

L 636.1395 166.8105

z

" clip-path="url(#pcf9522003d)" style="fill: #954a4a"/>

   </g>

   <g id="patch_219">

    <path d="M 636.1395 168.7395

L 653.5005 168.7395

L 653.5005 186.1005

L 636.1395 186.1005

z

" clip-path="url(#pcf9522003d)" style="fill: #954a4a"/>

   </g>

   <g id="patch_220">

    <path d="M 636.1395 188.0295

L 653.5005 188.0295

L 653.5005 205.3905

L 636.1395 205.3905

z

" clip-path="url(#pcf9522003d)" style="fill: #954a4a"/>

   </g>

   <g id="patch_221">

    <path d="M 636.1395 207.3195

L 653.5005 207.3195

L 653.5005 224.6805

L 636.1395 224.6805

z

" clip-path="url(#pcf9522003d)" style="fill: #954a4a"/>

   </g>

   <g id="patch_222">

    <path d="M 636.1395 226.6095

L 653.5005 226.6095

L 653.5005 243.9705

L 636.1395 243.9705

z

" clip-path="url(#pcf9522003d)" style="fill: #954a4a"/>

   </g>

   <g id="patch_223">

    <path d="M 636.1395 245.8995

L 653.5005 245.8995

L 653.5005 263.2605

L 636.1395 263.2605

z

" clip-path="url(#pcf9522003d)" style="fill: #954a4a"/>

   </g>

   <g id="patch_224">

    <path d="M 636.1395 265.1895

L 653.5005 265.1895

L 653.5005 282.5505

L 636.1395 282.5505

z

" clip-path="url(#pcf9522003d)" style="fill: #954a4a"/>

   </g>

   <g id="patch_225">

    <path d="M 655.4295 149.4495

L 672.7905 149.4495

L 672.7905 166.8105

L 655.4295 166.8105

z

" clip-path="url(#pcf9522003d)" style="fill: #954a4a"/>

   </g>

   <g id="patch_226">

    <path d="M 655.4295 168.7395

L 672.7905 168.7395

L 672.7905 186.1005

L 655.4295 186.1005

z

" clip-path="url(#pcf9522003d)" style="fill: #954a4a"/>

   </g>

   <g id="patch_227">

    <path d="M 655.4295 188.0295

L 672.7905 188.0295

L 672.7905 205.3905

L 655.4295 205.3905

z

" clip-path="url(#pcf9522003d)" style="fill: #954a4a"/>

   </g>

   <g id="patch_228">

    <path d="M 655.4295 207.3195

L 672.7905 207.3195

L 672.7905 224.6805

L 655.4295 224.6805

z

" clip-path="url(#pcf9522003d)" style="fill: #954a4a"/>

   </g>

   <g id="patch_229">

    <path d="M 655.4295 226.6095

L 672.7905 226.6095

L 672.7905 243.9705

L 655.4295 243.9705

z

" clip-path="url(#pcf9522003d)" style="fill: #954a4a"/>

   </g>

   <g id="patch_230">

    <path d="M 655.4295 245.8995

L 672.7905 245.8995

L 672.7905 263.2605

L 655.4295 263.2605

z

" clip-path="url(#pcf9522003d)" style="fill: #954a4a"/>

   </g>

   <g id="patch_231">

    <path d="M 655.4295 265.1895

L 672.7905 265.1895

L 672.7905 282.5505

L 655.4295 282.5505

z

" clip-path="url(#pcf9522003d)" style="fill: #954a4a"/>

   </g>

   <g id="patch_232">

    <path d="M 674.7195 149.4495

L 692.0805 149.4495

L 692.0805 166.8105

L 674.7195 166.8105

z

" clip-path="url(#pcf9522003d)" style="fill: #954a4a"/>

   </g>

   <g id="patch_233">

    <path d="M 674.7195 168.7395

L 692.0805 168.7395

L 692.0805 186.1005

L 674.7195 186.1005

z

" clip-path="url(#pcf9522003d)" style="fill: #954a4a"/>

   </g>

   <g id="patch_234">

    <path d="M 674.7195 188.0295

L 692.0805 188.0295

L 692.0805 205.3905

L 674.7195 205.3905

z

" clip-path="url(#pcf9522003d)" style="fill: #954a4a"/>

   </g>

   <g id="patch_235">

    <path d="M 674.7195 207.3195

L 692.0805 207.3195

L 692.0805 224.6805

L 674.7195 224.6805

z

" clip-path="url(#pcf9522003d)" style="fill: #954a4a"/>

   </g>

   <g id="patch_236">

    <path d="M 674.7195 226.6095

L 692.0805 226.6095

L 692.0805 243.9705

L 674.7195 243.9705

z

" clip-path="url(#pcf9522003d)" style="fill: #954a4a"/>

   </g>

   <g id="patch_237">

    <path d="M 674.7195 245.8995

L 692.0805 245.8995

L 692.0805 263.2605

L 674.7195 263.2605

z

" clip-path="url(#pcf9522003d)" style="fill: #954a4a"/>

   </g>

   <g id="patch_238">

    <path d="M 674.7195 265.1895

L 692.0805 265.1895

L 692.0805 282.5505

L 674.7195 282.5505

z

" clip-path="url(#pcf9522003d)" style="fill: #954a4a"/>

   </g>

   <g id="patch_239">

    <path d="M 694.0095 149.4495

L 711.3705 149.4495

L 711.3705 166.8105

L 694.0095 166.8105

z

" clip-path="url(#pcf9522003d)" style="fill: #954a4a"/>

   </g>

   <g id="patch_240">

    <path d="M 694.0095 168.7395

L 711.3705 168.7395

L 711.3705 186.1005

L 694.0095 186.1005

z

" clip-path="url(#pcf9522003d)" style="fill: #954a4a"/>

   </g>

   <g id="patch_241">

    <path d="M 694.0095 188.0295

L 711.3705 188.0295

L 711.3705 205.3905

L 694.0095 205.3905

z

" clip-path="url(#pcf9522003d)" style="fill: #954a4a"/>

   </g>

   <g id="patch_242">

    <path d="M 694.0095 207.3195

L 711.3705 207.3195

L 711.3705 224.6805

L 694.0095 224.6805

z

" clip-path="url(#pcf9522003d)" style="fill: #954a4a"/>

   </g>

   <g id="patch_243">

    <path d="M 694.0095 226.6095

L 711.3705 226.6095

L 711.3705 243.9705

L 694.0095 243.9705

z

" clip-path="url(#pcf9522003d)" style="fill: #954a4a"/>

   </g>

   <g id="patch_244">

    <path d="M 694.0095 245.8995

L 711.3705 245.8995

L 711.3705 263.2605

L 694.0095 263.2605

z

" clip-path="url(#pcf9522003d)" style="fill: #954a4a"/>

   </g>

   <g id="patch_245">

    <path d="M 694.0095 265.1895

L 711.3705 265.1895

L 711.3705 282.5505

L 694.0095 282.5505

z

" clip-path="url(#pcf9522003d)" style="fill: #954a4a"/>

   </g>

   <g id="patch_246">

    <path d="M 713.2995 149.4495

L 730.6605 149.4495

L 730.6605 166.8105

L 713.2995 166.8105

z

" clip-path="url(#pcf9522003d)" style="fill: #954a4a"/>

   </g>

   <g id="patch_247">

    <path d="M 713.2995 168.7395

L 730.6605 168.7395

L 730.6605 186.1005

L 713.2995 186.1005

z

" clip-path="url(#pcf9522003d)" style="fill: #954a4a"/>

   </g>

   <g id="patch_248">

    <path d="M 713.2995 188.0295

L 730.6605 188.0295

L 730.6605 205.3905

L 713.2995 205.3905

z

" clip-path="url(#pcf9522003d)" style="fill: #954a4a"/>

   </g>

   <g id="patch_249">

    <path d="M 713.2995 207.3195

L 730.6605 207.3195

L 730.6605 224.6805

L 713.2995 224.6805

z

" clip-path="url(#pcf9522003d)" style="fill: #954a4a"/>

   </g>

   <g id="patch_250">

    <path d="M 713.2995 226.6095

L 730.6605 226.6095

L 730.6605 243.9705

L 713.2995 243.9705

z

" clip-path="url(#pcf9522003d)" style="fill: #954a4a"/>

   </g>

   <g id="patch_251">

    <path d="M 713.2995 245.8995

L 730.6605 245.8995

L 730.6605 263.2605

L 713.2995 263.2605

z

" clip-path="url(#pcf9522003d)" style="fill: #954a4a"/>

   </g>

   <g id="patch_252">

    <path d="M 713.2995 265.1895

L 730.6605 265.1895

L 730.6605 282.5505

L 713.2995 282.5505

z

" clip-path="url(#pcf9522003d)" style="fill: #954a4a"/>

   </g>

   <g id="patch_253">

    <path d="M 732.5895 149.4495

L 749.9505 149.4495

L 749.9505 166.8105

L 732.5895 166.8105

z

" clip-path="url(#pcf9522003d)" style="fill: #954a4a"/>

   </g>

   <g id="patch_254">

    <path d="M 732.5895 168.7395

L 749.9505 168.7395

L 749.9505 186.1005

L 732.5895 186.1005

z

" clip-path="url(#pcf9522003d)" style="fill: #954a4a"/>

   </g>

   <g id="patch_255">

    <path d="M 732.5895 188.0295

L 749.9505 188.0295

L 749.9505 205.3905

L 732.5895 205.3905

z

" clip-path="url(#pcf9522003d)" style="fill: #954a4a"/>

   </g>

   <g id="patch_256">

    <path d="M 732.5895 207.3195

L 749.9505 207.3195

L 749.9505 224.6805

L 732.5895 224.6805

z

" clip-path="url(#pcf9522003d)" style="fill: #954a4a"/>

   </g>

   <g id="patch_257">

    <path d="M 732.5895 226.6095

L 749.9505 226.6095

L 749.9505 243.9705

L 732.5895 243.9705

z

" clip-path="url(#pcf9522003d)" style="fill: #954a4a"/>

   </g>

   <g id="patch_258">

    <path d="M 732.5895 245.8995

L 749.9505 245.8995

L 749.9505 263.2605

L 732.5895 263.2605

z

" clip-path="url(#pcf9522003d)" style="fill: #954a4a"/>

   </g>

   <g id="patch_259">

    <path d="M 732.5895 265.1895

L 749.9505 265.1895

L 749.9505 282.5505

L 732.5895 282.5505

z

" clip-path="url(#pcf9522003d)" style="fill: #954a4a"/>

   </g>

   <g id="patch_260">

    <path d="M 751.8795 149.4495

L 769.2405 149.4495

L 769.2405 166.8105

L 751.8795 166.8105

z

" clip-path="url(#pcf9522003d)" style="fill: #954a4a"/>

   </g>

   <g id="patch_261">

    <path d="M 751.8795 168.7395

L 769.2405 168.7395

L 769.2405 186.1005

L 751.8795 186.1005

z

" clip-path="url(#pcf9522003d)" style="fill: #954a4a"/>

   </g>

   <g id="patch_262">

    <path d="M 751.8795 188.0295

L 769.2405 188.0295

L 769.2405 205.3905

L 751.8795 205.3905

z

" clip-path="url(#pcf9522003d)" style="fill: #954a4a"/>

   </g>

   <g id="patch_263">

    <path d="M 751.8795 207.3195

L 769.2405 207.3195

L 769.2405 224.6805

L 751.8795 224.6805

z

" clip-path="url(#pcf9522003d)" style="fill: #954a4a"/>

   </g>

   <g id="patch_264">

    <path d="M 751.8795 226.6095

L 769.2405 226.6095

L 769.2405 243.9705

L 751.8795 243.9705

z

" clip-path="url(#pcf9522003d)" style="fill: #954a4a"/>

   </g>

   <g id="patch_265">

    <path d="M 751.8795 245.8995

L 769.2405 245.8995

L 769.2405 263.2605

L 751.8795 263.2605

z

" clip-path="url(#pcf9522003d)" style="fill: #954a4a"/>

   </g>

   <g id="patch_266">

    <path d="M 751.8795 265.1895

L 769.2405 265.1895

L 769.2405 282.5505

L 751.8795 282.5505

z

" clip-path="url(#pcf9522003d)" style="fill: #954a4a"/>

   </g>

   <g id="patch_267">

    <path d="M 771.1695 149.4495

L 788.5305 149.4495

L 788.5305 166.8105

L 771.1695 166.8105

z

" clip-path="url(#pcf9522003d)" style="fill: #954a4a"/>

   </g>

   <g id="patch_268">

    <path d="M 771.1695 168.7395

L 788.5305 168.7395

L 788.5305 186.1005

L 771.1695 186.1005

z

" clip-path="url(#pcf9522003d)" style="fill: #954a4a"/>

   </g>

   <g id="patch_269">

    <path d="M 771.1695 188.0295

L 788.5305 188.0295

L 788.5305 205.3905

L 771.1695 205.3905

z

" clip-path="url(#pcf9522003d)" style="fill: #954a4a"/>

   </g>

   <g id="patch_270">

    <path d="M 771.1695 207.3195

L 788.5305 207.3195

L 788.5305 224.6805

L 771.1695 224.6805

z

" clip-path="url(#pcf9522003d)" style="fill: #954a4a"/>

   </g>

   <g id="patch_271">

    <path d="M 771.1695 226.6095

L 788.5305 226.6095

L 788.5305 243.9705

L 771.1695 243.9705

z

" clip-path="url(#pcf9522003d)" style="fill: #954a4a"/>

   </g>

   <g id="patch_272">

    <path d="M 771.1695 245.8995

L 788.5305 245.8995

L 788.5305 263.2605

L 771.1695 263.2605

z

" clip-path="url(#pcf9522003d)" style="fill: #954a4a"/>

   </g>

   <g id="patch_273">

    <path d="M 771.1695 265.1895

L 788.5305 265.1895

L 788.5305 282.5505

L 771.1695 282.5505

z

" clip-path="url(#pcf9522003d)" style="fill: #954a4a"/>

   </g>

   <g id="patch_274">

    <path d="M 790.4595 149.4495

L 807.8205 149.4495

L 807.8205 166.8105

L 790.4595 166.8105

z

" clip-path="url(#pcf9522003d)" style="fill: #954a4a"/>

   </g>

   <g id="patch_275">

    <path d="M 790.4595 168.7395

L 807.8205 168.7395

L 807.8205 186.1005

L 790.4595 186.1005

z

" clip-path="url(#pcf9522003d)" style="fill: #954a4a"/>

   </g>

   <g id="patch_276">

    <path d="M 790.4595 188.0295

L 807.8205 188.0295

L 807.8205 205.3905

L 790.4595 205.3905

z

" clip-path="url(#pcf9522003d)" style="fill: #954a4a"/>

   </g>

   <g id="patch_277">

    <path d="M 790.4595 207.3195

L 807.8205 207.3195

L 807.8205 224.6805

L 790.4595 224.6805

z

" clip-path="url(#pcf9522003d)" style="fill: #954a4a"/>

   </g>

   <g id="patch_278">

    <path d="M 790.4595 226.6095

L 807.8205 226.6095

L 807.8205 243.9705

L 790.4595 243.9705

z

" clip-path="url(#pcf9522003d)" style="fill: #954a4a"/>

   </g>

   <g id="patch_279">

    <path d="M 790.4595 245.8995

L 807.8205 245.8995

L 807.8205 263.2605

L 790.4595 263.2605

z

" clip-path="url(#pcf9522003d)" style="fill: #954a4a"/>

   </g>

   <g id="patch_280">

    <path d="M 790.4595 265.1895

L 807.8205 265.1895

L 807.8205 282.5505

L 790.4595 282.5505

z

" clip-path="url(#pcf9522003d)" style="fill: #954a4a"/>

   </g>

   <g id="patch_281">

    <path d="M 809.7495 149.4495

L 827.1105 149.4495

L 827.1105 166.8105

L 809.7495 166.8105

z

" clip-path="url(#pcf9522003d)" style="fill: #954a4a"/>

   </g>

   <g id="patch_282">

    <path d="M 809.7495 168.7395

L 827.1105 168.7395

L 827.1105 186.1005

L 809.7495 186.1005

z

" clip-path="url(#pcf9522003d)" style="fill: #954a4a"/>

   </g>

   <g id="patch_283">

    <path d="M 809.7495 188.0295

L 827.1105 188.0295

L 827.1105 205.3905

L 809.7495 205.3905

z

" clip-path="url(#pcf9522003d)" style="fill: #954a4a"/>

   </g>

   <g id="patch_284">

    <path d="M 809.7495 207.3195

L 827.1105 207.3195

L 827.1105 224.6805

L 809.7495 224.6805

z

" clip-path="url(#pcf9522003d)" style="fill: #954a4a"/>

   </g>

   <g id="patch_285">

    <path d="M 809.7495 226.6095

L 827.1105 226.6095

L 827.1105 243.9705

L 809.7495 243.9705

z

" clip-path="url(#pcf9522003d)" style="fill: #954a4a"/>

   </g>

   <g id="patch_286">

    <path d="M 809.7495 245.8995

L 827.1105 245.8995

L 827.1105 263.2605

L 809.7495 263.2605

z

" clip-path="url(#pcf9522003d)" style="fill: #954a4a"/>

   </g>

   <g id="patch_287">

    <path d="M 809.7495 265.1895

L 827.1105 265.1895

L 827.1105 282.5505

L 809.7495 282.5505

z

" clip-path="url(#pcf9522003d)" style="fill: #954a4a"/>

   </g>

   <g id="patch_288">

    <path d="M 829.0395 149.4495

L 846.4005 149.4495

L 846.4005 166.8105

L 829.0395 166.8105

z

" clip-path="url(#pcf9522003d)" style="fill: #954a4a"/>

   </g>

   <g id="patch_289">

    <path d="M 829.0395 168.7395

L 846.4005 168.7395

L 846.4005 186.1005

L 829.0395 186.1005

z

" clip-path="url(#pcf9522003d)" style="fill: #954a4a"/>

   </g>

   <g id="patch_290">

    <path d="M 829.0395 188.0295

L 846.4005 188.0295

L 846.4005 205.3905

L 829.0395 205.3905

z

" clip-path="url(#pcf9522003d)" style="fill: #954a4a"/>

   </g>

   <g id="patch_291">

    <path d="M 829.0395 207.3195

L 846.4005 207.3195

L 846.4005 224.6805

L 829.0395 224.6805

z

" clip-path="url(#pcf9522003d)" style="fill: #954a4a"/>

   </g>

   <g id="patch_292">

    <path d="M 829.0395 226.6095

L 846.4005 226.6095

L 846.4005 243.9705

L 829.0395 243.9705

z

" clip-path="url(#pcf9522003d)" style="fill: #954a4a"/>

   </g>

   <g id="patch_293">

    <path d="M 829.0395 245.8995

L 846.4005 245.8995

L 846.4005 263.2605

L 829.0395 263.2605

z

" clip-path="url(#pcf9522003d)" style="fill: #954a4a"/>

   </g>

   <g id="patch_294">

    <path d="M 829.0395 265.1895

L 846.4005 265.1895

L 846.4005 282.5505

L 829.0395 282.5505

z

" clip-path="url(#pcf9522003d)" style="fill: #954a4a"/>

   </g>

   <g id="patch_295">

    <path d="M 848.3295 149.4495

L 865.6905 149.4495

L 865.6905 166.8105

L 848.3295 166.8105

z

" clip-path="url(#pcf9522003d)" style="fill: #954a4a"/>

   </g>

   <g id="patch_296">

    <path d="M 848.3295 168.7395

L 865.6905 168.7395

L 865.6905 186.1005

L 848.3295 186.1005

z

" clip-path="url(#pcf9522003d)" style="fill: #954a4a"/>

   </g>

   <g id="patch_297">

    <path d="M 848.3295 188.0295

L 865.6905 188.0295

L 865.6905 205.3905

L 848.3295 205.3905

z

" clip-path="url(#pcf9522003d)" style="fill: #954a4a"/>

   </g>

   <g id="patch_298">

    <path d="M 848.3295 207.3195

L 865.6905 207.3195

L 865.6905 224.6805

L 848.3295 224.6805

z

" clip-path="url(#pcf9522003d)" style="fill: #954a4a"/>

   </g>

   <g id="patch_299">

    <path d="M 848.3295 226.6095

L 865.6905 226.6095

L 865.6905 243.9705

L 848.3295 243.9705

z

" clip-path="url(#pcf9522003d)" style="fill: #954a4a"/>

   </g>

   <g id="patch_300">

    <path d="M 848.3295 245.8995

L 865.6905 245.8995

L 865.6905 263.2605

L 848.3295 263.2605

z

" clip-path="url(#pcf9522003d)" style="fill: #fff700"/>

   </g>

   <g id="patch_301">

    <path d="M 848.3295 265.1895

L 865.6905 265.1895

L 865.6905 282.5505

L 848.3295 282.5505

z

" clip-path="url(#pcf9522003d)" style="fill: #954a4a"/>

   </g>

   <g id="patch_302">

    <path d="M 867.6195 149.4495

L 884.9805 149.4495

L 884.9805 166.8105

L 867.6195 166.8105

z

" clip-path="url(#pcf9522003d)" style="fill: #954a4a"/>

   </g>

   <g id="patch_303">

    <path d="M 867.6195 168.7395

L 884.9805 168.7395

L 884.9805 186.1005

L 867.6195 186.1005

z

" clip-path="url(#pcf9522003d)" style="fill: #954a4a"/>

   </g>

   <g id="patch_304">

    <path d="M 867.6195 188.0295

L 884.9805 188.0295

L 884.9805 205.3905

L 867.6195 205.3905

z

" clip-path="url(#pcf9522003d)" style="fill: #954a4a"/>

   </g>

   <g id="patch_305">

    <path d="M 867.6195 207.3195

L 884.9805 207.3195

L 884.9805 224.6805

L 867.6195 224.6805

z

" clip-path="url(#pcf9522003d)" style="fill: #954a4a"/>

   </g>

   <g id="patch_306">

    <path d="M 867.6195 226.6095

L 884.9805 226.6095

L 884.9805 243.9705

L 867.6195 243.9705

z

" clip-path="url(#pcf9522003d)" style="fill: #954a4a"/>

   </g>

   <g id="patch_307">

    <path d="M 867.6195 245.8995

L 884.9805 245.8995

L 884.9805 263.2605

L 867.6195 263.2605

z

" clip-path="url(#pcf9522003d)" style="fill: #ccc738"/>

   </g>

   <g id="patch_308">

    <path d="M 867.6195 265.1895

L 884.9805 265.1895

L 884.9805 282.5505

L 867.6195 282.5505

z

" clip-path="url(#pcf9522003d)" style="fill: #954a4a"/>

   </g>

   <g id="patch_309">

    <path d="M 886.9095 149.4495

L 904.2705 149.4495

L 904.2705 166.8105

L 886.9095 166.8105

z

" clip-path="url(#pcf9522003d)" style="fill: #954a4a"/>

   </g>

   <g id="patch_310">

    <path d="M 886.9095 168.7395

L 904.2705 168.7395

L 904.2705 186.1005

L 886.9095 186.1005

z

" clip-path="url(#pcf9522003d)" style="fill: #954a4a"/>

   </g>

   <g id="patch_311">

    <path d="M 886.9095 188.0295

L 904.2705 188.0295

L 904.2705 205.3905

L 886.9095 205.3905

z

" clip-path="url(#pcf9522003d)" style="fill: #954a4a"/>

   </g>

   <g id="patch_312">

    <path d="M 886.9095 207.3195

L 904.2705 207.3195

L 904.2705 224.6805

L 886.9095 224.6805

z

" clip-path="url(#pcf9522003d)" style="fill: #954a4a"/>

   </g>

   <g id="patch_313">

    <path d="M 886.9095 226.6095

L 904.2705 226.6095

L 904.2705 243.9705

L 886.9095 243.9705

z

" clip-path="url(#pcf9522003d)" style="fill: #954a4a"/>

   </g>

   <g id="patch_314">

    <path d="M 886.9095 245.8995

L 904.2705 245.8995

L 904.2705 263.2605

L 886.9095 263.2605

z

" clip-path="url(#pcf9522003d)" style="fill: #954a4a"/>

   </g>

   <g id="patch_315">

    <path d="M 886.9095 265.1895

L 904.2705 265.1895

L 904.2705 282.5505

L 886.9095 282.5505

z

" clip-path="url(#pcf9522003d)" style="fill: #954a4a"/>

   </g>

   <g id="patch_316">

    <path d="M 906.1995 149.4495

L 923.5605 149.4495

L 923.5605 166.8105

L 906.1995 166.8105

z

" clip-path="url(#pcf9522003d)" style="fill: #954a4a"/>

   </g>

   <g id="patch_317">

    <path d="M 906.1995 168.7395

L 923.5605 168.7395

L 923.5605 186.1005

L 906.1995 186.1005

z

" clip-path="url(#pcf9522003d)" style="fill: #954a4a"/>

   </g>

   <g id="patch_318">

    <path d="M 906.1995 188.0295

L 923.5605 188.0295

L 923.5605 205.3905

L 906.1995 205.3905

z

" clip-path="url(#pcf9522003d)" style="fill: #954a4a"/>

   </g>

   <g id="patch_319">

    <path d="M 906.1995 207.3195

L 923.5605 207.3195

L 923.5605 224.6805

L 906.1995 224.6805

z

" clip-path="url(#pcf9522003d)" style="fill: #954a4a"/>

   </g>

   <g id="patch_320">

    <path d="M 906.1995 226.6095

L 923.5605 226.6095

L 923.5605 243.9705

L 906.1995 243.9705

z

" clip-path="url(#pcf9522003d)" style="fill: #954a4a"/>

   </g>

   <g id="patch_321">

    <path d="M 906.1995 245.8995

L 923.5605 245.8995

L 923.5605 263.2605

L 906.1995 263.2605

z

" clip-path="url(#pcf9522003d)" style="fill: #954a4a"/>

   </g>

   <g id="patch_322">

    <path d="M 906.1995 265.1895

L 923.5605 265.1895

L 923.5605 282.5505

L 906.1995 282.5505

z

" clip-path="url(#pcf9522003d)" style="fill: #954a4a"/>

   </g>

   <g id="patch_323">

    <path d="M 925.4895 149.4495

L 942.8505 149.4495

L 942.8505 166.8105

L 925.4895 166.8105

z

" clip-path="url(#pcf9522003d)" style="fill: #954a4a"/>

   </g>

   <g id="patch_324">

    <path d="M 925.4895 168.7395

L 942.8505 168.7395

L 942.8505 186.1005

L 925.4895 186.1005

z

" clip-path="url(#pcf9522003d)" style="fill: #954a4a"/>

   </g>

   <g id="patch_325">

    <path d="M 925.4895 188.0295

L 942.8505 188.0295

L 942.8505 205.3905

L 925.4895 205.3905

z

" clip-path="url(#pcf9522003d)" style="fill: #954a4a"/>

   </g>

   <g id="patch_326">

    <path d="M 925.4895 207.3195

L 942.8505 207.3195

L 942.8505 224.6805

L 925.4895 224.6805

z

" clip-path="url(#pcf9522003d)" style="fill: #954a4a"/>

   </g>

   <g id="patch_327">

    <path d="M 925.4895 226.6095

L 942.8505 226.6095

L 942.8505 243.9705

L 925.4895 243.9705

z

" clip-path="url(#pcf9522003d)" style="fill: #954a4a"/>

   </g>

   <g id="patch_328">

    <path d="M 925.4895 245.8995

L 942.8505 245.8995

L 942.8505 263.2605

L 925.4895 263.2605

z

" clip-path="url(#pcf9522003d)" style="fill: #954a4a"/>

   </g>

   <g id="patch_329">

    <path d="M 925.4895 265.1895

L 942.8505 265.1895

L 942.8505 282.5505

L 925.4895 282.5505

z

" clip-path="url(#pcf9522003d)" style="fill: #954a4a"/>

   </g>

   <g id="patch_330">

    <path d="M 944.7795 149.4495

L 962.1405 149.4495

L 962.1405 166.8105

L 944.7795 166.8105

z

" clip-path="url(#pcf9522003d)" style="fill: #954a4a"/>

   </g>

   <g id="patch_331">

    <path d="M 944.7795 168.7395

L 962.1405 168.7395

L 962.1405 186.1005

L 944.7795 186.1005

z

" clip-path="url(#pcf9522003d)" style="fill: #954a4a"/>

   </g>

   <g id="patch_332">

    <path d="M 944.7795 188.0295

L 962.1405 188.0295

L 962.1405 205.3905

L 944.7795 205.3905

z

" clip-path="url(#pcf9522003d)" style="fill: #954a4a"/>

   </g>

   <g id="patch_333">

    <path d="M 944.7795 207.3195

L 962.1405 207.3195

L 962.1405 224.6805

L 944.7795 224.6805

z

" clip-path="url(#pcf9522003d)" style="fill: #954a4a"/>

   </g>

   <g id="patch_334">

    <path d="M 944.7795 226.6095

L 962.1405 226.6095

L 962.1405 243.9705

L 944.7795 243.9705

z

" clip-path="url(#pcf9522003d)" style="fill: #954a4a"/>

   </g>

   <g id="patch_335">

    <path d="M 944.7795 245.8995

L 962.1405 245.8995

L 962.1405 263.2605

L 944.7795 263.2605

z

" clip-path="url(#pcf9522003d)" style="fill: #954a4a"/>

   </g>

   <g id="patch_336">

    <path d="M 944.7795 265.1895

L 962.1405 265.1895

L 962.1405 282.5505

L 944.7795 282.5505

z

" clip-path="url(#pcf9522003d)" style="fill: #954a4a"/>

   </g>

   <g id="patch_337">

    <path d="M 964.0695 149.4495

L 981.4305 149.4495

L 981.4305 166.8105

L 964.0695 166.8105

z

" clip-path="url(#pcf9522003d)" style="fill: #954a4a"/>

   </g>

   <g id="patch_338">

    <path d="M 964.0695 168.7395

L 981.4305 168.7395

L 981.4305 186.1005

L 964.0695 186.1005

z

" clip-path="url(#pcf9522003d)" style="fill: #954a4a"/>

   </g>

   <g id="patch_339">

    <path d="M 964.0695 188.0295

L 981.4305 188.0295

L 981.4305 205.3905

L 964.0695 205.3905

z

" clip-path="url(#pcf9522003d)" style="fill: #954a4a"/>

   </g>

   <g id="patch_340">

    <path d="M 964.0695 207.3195

L 981.4305 207.3195

L 981.4305 224.6805

L 964.0695 224.6805

z

" clip-path="url(#pcf9522003d)" style="fill: #954a4a"/>

   </g>

   <g id="patch_341">

    <path d="M 964.0695 226.6095

L 981.4305 226.6095

L 981.4305 243.9705

L 964.0695 243.9705

z

" clip-path="url(#pcf9522003d)" style="fill: #954a4a"/>

   </g>

   <g id="patch_342">

    <path d="M 964.0695 245.8995

L 981.4305 245.8995

L 981.4305 263.2605

L 964.0695 263.2605

z

" clip-path="url(#pcf9522003d)" style="fill: #954a4a"/>

   </g>

   <g id="patch_343">

    <path d="M 964.0695 265.1895

L 981.4305 265.1895

L 981.4305 282.5505

L 964.0695 282.5505

z

" clip-path="url(#pcf9522003d)" style="fill: #954a4a"/>

   </g>

   <g id="patch_344">

    <path d="M 983.3595 149.4495

L 1000.7205 149.4495

L 1000.7205 166.8105

L 983.3595 166.8105

z

" clip-path="url(#pcf9522003d)" style="fill: #954a4a"/>

   </g>

   <g id="patch_345">

    <path d="M 983.3595 168.7395

L 1000.7205 168.7395

L 1000.7205 186.1005

L 983.3595 186.1005

z

" clip-path="url(#pcf9522003d)" style="fill: #954a4a"/>

   </g>

   <g id="patch_346">

    <path d="M 983.3595 188.0295

L 1000.7205 188.0295

L 1000.7205 205.3905

L 983.3595 205.3905

z

" clip-path="url(#pcf9522003d)" style="fill: #954a4a"/>

   </g>

   <g id="patch_347">

    <path d="M 983.3595 207.3195

L 1000.7205 207.3195

L 1000.7205 224.6805

L 983.3595 224.6805

z

" clip-path="url(#pcf9522003d)" style="fill: #954a4a"/>

   </g>

   <g id="patch_348">

    <path d="M 983.3595 226.6095

L 1000.7205 226.6095

L 1000.7205 243.9705

L 983.3595 243.9705

z

" clip-path="url(#pcf9522003d)" style="fill: #954a4a"/>

   </g>

   <g id="patch_349">

    <path d="M 983.3595 245.8995

L 1000.7205 245.8995

L 1000.7205 263.2605

L 983.3595 263.2605

z

" clip-path="url(#pcf9522003d)" style="fill: #954a4a"/>

   </g>

   <g id="patch_350">

    <path d="M 983.3595 265.1895

L 1000.7205 265.1895

L 1000.7205 282.5505

L 983.3595 282.5505

z

" clip-path="url(#pcf9522003d)" style="fill: #954a4a"/>

   </g>

   <g id="patch_351">

    <path d="M 1002.6495 149.4495

L 1020.0105 149.4495

L 1020.0105 166.8105

L 1002.6495 166.8105

z

" clip-path="url(#pcf9522003d)" style="fill: #954a4a"/>

   </g>

   <g id="patch_352">

    <path d="M 1002.6495 168.7395

L 1020.0105 168.7395

L 1020.0105 186.1005

L 1002.6495 186.1005

z

" clip-path="url(#pcf9522003d)" style="fill: #954a4a"/>

   </g>

   <g id="patch_353">

    <path d="M 1002.6495 188.0295

L 1020.0105 188.0295

L 1020.0105 205.3905

L 1002.6495 205.3905

z

" clip-path="url(#pcf9522003d)" style="fill: #954a4a"/>

   </g>

   <g id="patch_354">

    <path d="M 1002.6495 207.3195

L 1020.0105 207.3195

L 1020.0105 224.6805

L 1002.6495 224.6805

z

" clip-path="url(#pcf9522003d)" style="fill: #954a4a"/>

   </g>

   <g id="patch_355">

    <path d="M 1002.6495 226.6095

L 1020.0105 226.6095

L 1020.0105 243.9705

L 1002.6495 243.9705

z

" clip-path="url(#pcf9522003d)" style="fill: #954a4a"/>

   </g>

   <g id="patch_356">

    <path d="M 1002.6495 245.8995

L 1020.0105 245.8995

L 1020.0105 263.2605

L 1002.6495 263.2605

z

" clip-path="url(#pcf9522003d)" style="fill: #954a4a"/>

   </g>

   <g id="patch_357">

    <path d="M 1002.6495 265.1895

L 1020.0105 265.1895

L 1020.0105 282.5505

L 1002.6495 282.5505

z

" clip-path="url(#pcf9522003d)" style="fill: #954a4a"/>

   </g>

   <g id="patch_358">

    <path d="M 1021.9395 149.4495

L 1039.3005 149.4495

L 1039.3005 166.8105

L 1021.9395 166.8105

z

" clip-path="url(#pcf9522003d)" style="fill: #954a4a"/>

   </g>

   <g id="patch_359">

    <path d="M 1021.9395 168.7395

L 1039.3005 168.7395

L 1039.3005 186.1005

L 1021.9395 186.1005

z

" clip-path="url(#pcf9522003d)" style="fill: #954a4a"/>

   </g>

   <g id="patch_360">

    <path d="M 1021.9395 188.0295

L 1039.3005 188.0295

L 1039.3005 205.3905

L 1021.9395 205.3905

z

" clip-path="url(#pcf9522003d)" style="fill: #954a4a"/>

   </g>

   <g id="patch_361">

    <path d="M 1021.9395 207.3195

L 1039.3005 207.3195

L 1039.3005 224.6805

L 1021.9395 224.6805

z

" clip-path="url(#pcf9522003d)" style="fill: #954a4a"/>

   </g>

   <g id="patch_362">

    <path d="M 1021.9395 226.6095

L 1039.3005 226.6095

L 1039.3005 243.9705

L 1021.9395 243.9705

z

" clip-path="url(#pcf9522003d)" style="fill: #954a4a"/>

   </g>

   <g id="patch_363">

    <path d="M 1021.9395 245.8995

L 1039.3005 245.8995

L 1039.3005 263.2605

L 1021.9395 263.2605

z

" clip-path="url(#pcf9522003d)" style="fill: #954a4a"/>

   </g>

   <g id="patch_364">

    <path d="M 1021.9395 265.1895

L 1039.3005 265.1895

L 1039.3005 282.5505

L 1021.9395 282.5505

z

" clip-path="url(#pcf9522003d)" style="fill: #954a4a"/>

   </g>

   <g id="patch_365">

    <path d="M 1041.2295 149.4495

L 1058.5905 149.4495

L 1058.5905 166.8105

L 1041.2295 166.8105

z

" clip-path="url(#pcf9522003d)" style="fill: #954a4a"/>

   </g>

   <g id="patch_366">

    <path d="M 1041.2295 168.7395

L 1058.5905 168.7395

L 1058.5905 186.1005

L 1041.2295 186.1005

z

" clip-path="url(#pcf9522003d)" style="fill: #954a4a"/>

   </g>

   <g id="patch_367">

    <path d="M 1041.2295 188.0295

L 1058.5905 188.0295

L 1058.5905 205.3905

L 1041.2295 205.3905

z

" clip-path="url(#pcf9522003d)" style="fill: #954a4a"/>

   </g>

   <g id="matplotlib.axis_1"/>

   <g id="matplotlib.axis_2"/>

   <g id="text_1">

    <!-- Jan -->

    <g style="fill: #fff700" transform="translate(39.122187 143.528375) scale(0.1 -0.1)">

     <defs>

      <path id="DejaVuSans-4a" d="M 628 4666

L 1259 4666

L 1259 325

Q 1259 -519 939 -900

Q 619 -1281 -91 -1281

L -331 -1281

L -331 -750

L -134 -750

Q 284 -750 456 -515

Q 628 -281 628 325

L 628 4666

z

" transform="scale(0.015625)"/>

      <path id="DejaVuSans-61" d="M 2194 1759

Q 1497 1759 1228 1600

Q 959 1441 959 1056

Q 959 750 1161 570

Q 1363 391 1709 391

Q 2188 391 2477 730

Q 2766 1069 2766 1631

L 2766 1759

L 2194 1759

z

M 3341 1997

L 3341 0

L 2766 0

L 2766 531

Q 2569 213 2275 61

Q 1981 -91 1556 -91

Q 1019 -91 701 211

Q 384 513 384 1019

Q 384 1609 779 1909

Q 1175 2209 1959 2209

L 2766 2209

L 2766 2266

Q 2766 2663 2505 2880

Q 2244 3097 1772 3097

Q 1472 3097 1187 3025

Q 903 2953 641 2809

L 641 3341

Q 956 3463 1253 3523

Q 1550 3584 1831 3584

Q 2591 3584 2966 3190

Q 3341 2797 3341 1997

z

" transform="scale(0.015625)"/>

      <path id="DejaVuSans-6e" d="M 3513 2113

L 3513 0

L 2938 0

L 2938 2094

Q 2938 2591 2744 2837

Q 2550 3084 2163 3084

Q 1697 3084 1428 2787

Q 1159 2491 1159 1978

L 1159 0

L 581 0

L 581 3500

L 1159 3500

L 1159 2956

Q 1366 3272 1645 3428

Q 1925 3584 2291 3584

Q 2894 3584 3203 3211

Q 3513 2838 3513 2113

z

" transform="scale(0.015625)"/>

     </defs>

     <use xlink:href="#DejaVuSans-4a"/>

     <use xlink:href="#DejaVuSans-61" transform="translate(29.492188 0)"/>

     <use xlink:href="#DejaVuSans-6e" transform="translate(90.771484 0)"/>

    </g>

   </g>

   <g id="text_2">

    <!-- Feb -->

    <g style="fill: #fff700" transform="translate(134.428438 143.528375) scale(0.1 -0.1)">

     <defs>

      <path id="DejaVuSans-46" d="M 628 4666

L 3309 4666

L 3309 4134

L 1259 4134

L 1259 2759

L 3109 2759

L 3109 2228

L 1259 2228

L 1259 0

L 628 0

L 628 4666

z

" transform="scale(0.015625)"/>

      <path id="DejaVuSans-65" d="M 3597 1894

L 3597 1613

L 953 1613

Q 991 1019 1311 708

Q 1631 397 2203 397

Q 2534 397 2845 478

Q 3156 559 3463 722

L 3463 178

Q 3153 47 2828 -22

Q 2503 -91 2169 -91

Q 1331 -91 842 396

Q 353 884 353 1716

Q 353 2575 817 3079

Q 1281 3584 2069 3584

Q 2775 3584 3186 3129

Q 3597 2675 3597 1894

z

M 3022 2063

Q 3016 2534 2758 2815

Q 2500 3097 2075 3097

Q 1594 3097 1305 2825

Q 1016 2553 972 2059

L 3022 2063

z

" transform="scale(0.015625)"/>

      <path id="DejaVuSans-62" d="M 3116 1747

Q 3116 2381 2855 2742

Q 2594 3103 2138 3103

Q 1681 3103 1420 2742

Q 1159 2381 1159 1747

Q 1159 1113 1420 752

Q 1681 391 2138 391

Q 2594 391 2855 752

Q 3116 1113 3116 1747

z

M 1159 2969

Q 1341 3281 1617 3432

Q 1894 3584 2278 3584

Q 2916 3584 3314 3078

Q 3713 2572 3713 1747

Q 3713 922 3314 415

Q 2916 -91 2278 -91

Q 1894 -91 1617 61

Q 1341 213 1159 525

L 1159 0

L 581 0

L 581 4863

L 1159 4863

L 1159 2969

z

" transform="scale(0.015625)"/>

     </defs>

     <use xlink:href="#DejaVuSans-46"/>

     <use xlink:href="#DejaVuSans-65" transform="translate(52.019531 0)"/>

     <use xlink:href="#DejaVuSans-62" transform="translate(113.542969 0)"/>

    </g>

   </g>

   <g id="text_3">

    <!-- Mar -->

    <g style="fill: #fff700" transform="translate(211.006406 143.528375) scale(0.1 -0.1)">

     <defs>

      <path id="DejaVuSans-4d" d="M 628 4666

L 1569 4666

L 2759 1491

L 3956 4666

L 4897 4666

L 4897 0

L 4281 0

L 4281 4097

L 3078 897

L 2444 897

L 1241 4097

L 1241 0

L 628 0

L 628 4666

z

" transform="scale(0.015625)"/>

      <path id="DejaVuSans-72" d="M 2631 2963

Q 2534 3019 2420 3045

Q 2306 3072 2169 3072

Q 1681 3072 1420 2755

Q 1159 2438 1159 1844

L 1159 0

L 581 0

L 581 3500

L 1159 3500

L 1159 2956

Q 1341 3275 1631 3429

Q 1922 3584 2338 3584

Q 2397 3584 2469 3576

Q 2541 3569 2628 3553

L 2631 2963

z

" transform="scale(0.015625)"/>

     </defs>

     <use xlink:href="#DejaVuSans-4d"/>

     <use xlink:href="#DejaVuSans-61" transform="translate(86.279297 0)"/>

     <use xlink:href="#DejaVuSans-72" transform="translate(147.558594 0)"/>

    </g>

   </g>

   <g id="text_4">

    <!-- Apr -->

    <g style="fill: #fff700" transform="translate(288.95 143.528375) scale(0.1 -0.1)">

     <defs>

      <path id="DejaVuSans-41" d="M 2188 4044

L 1331 1722

L 3047 1722

L 2188 4044

z

M 1831 4666

L 2547 4666

L 4325 0

L 3669 0

L 3244 1197

L 1141 1197

L 716 0

L 50 0

L 1831 4666

z

" transform="scale(0.015625)"/>

      <path id="DejaVuSans-70" d="M 1159 525

L 1159 -1331

L 581 -1331

L 581 3500

L 1159 3500

L 1159 2969

Q 1341 3281 1617 3432

Q 1894 3584 2278 3584

Q 2916 3584 3314 3078

Q 3713 2572 3713 1747

Q 3713 922 3314 415

Q 2916 -91 2278 -91

Q 1894 -91 1617 61

Q 1341 213 1159 525

z

M 3116 1747

Q 3116 2381 2855 2742

Q 2594 3103 2138 3103

Q 1681 3103 1420 2742

Q 1159 2381 1159 1747

Q 1159 1113 1420 752

Q 1681 391 2138 391

Q 2594 391 2855 752

Q 3116 1113 3116 1747

z

" transform="scale(0.015625)"/>

     </defs>

     <use xlink:href="#DejaVuSans-41"/>

     <use xlink:href="#DejaVuSans-70" transform="translate(68.408203 0)"/>

     <use xlink:href="#DejaVuSans-72" transform="translate(131.884766 0)"/>

    </g>

   </g>

   <g id="text_5">

    <!-- May -->

    <g style="fill: #fff700" transform="translate(364.4225 143.528375) scale(0.1 -0.1)">

     <defs>

      <path id="DejaVuSans-79" d="M 2059 -325

Q 1816 -950 1584 -1140

Q 1353 -1331 966 -1331

L 506 -1331

L 506 -850

L 844 -850

Q 1081 -850 1212 -737

Q 1344 -625 1503 -206

L 1606 56

L 191 3500

L 800 3500

L 1894 763

L 2988 3500

L 3597 3500

L 2059 -325

z

" transform="scale(0.015625)"/>

     </defs>

     <use xlink:href="#DejaVuSans-4d"/>

     <use xlink:href="#DejaVuSans-61" transform="translate(86.279297 0)"/>

     <use xlink:href="#DejaVuSans-79" transform="translate(147.558594 0)"/>

    </g>

   </g>

   <g id="text_6">

    <!-- Jun -->

    <g style="fill: #fff700" transform="translate(463.3975 143.528375) scale(0.1 -0.1)">

     <defs>

      <path id="DejaVuSans-75" d="M 544 1381

L 544 3500

L 1119 3500

L 1119 1403

Q 1119 906 1312 657

Q 1506 409 1894 409

Q 2359 409 2629 706

Q 2900 1003 2900 1516

L 2900 3500

L 3475 3500

L 3475 0

L 2900 0

L 2900 538

Q 2691 219 2414 64

Q 2138 -91 1772 -91

Q 1169 -91 856 284

Q 544 659 544 1381

z

M 1991 3584

L 1991 3584

z

" transform="scale(0.015625)"/>

     </defs>

     <use xlink:href="#DejaVuSans-4a"/>

     <use xlink:href="#DejaVuSans-75" transform="translate(29.492188 0)"/>

     <use xlink:href="#DejaVuSans-6e" transform="translate(92.871094 0)"/>

    </g>

   </g>

   <g id="text_7">

    <!-- Jul -->

    <g style="fill: #fff700" transform="translate(542.337188 143.528375) scale(0.1 -0.1)">

     <defs>

      <path id="DejaVuSans-6c" d="M 603 4863

L 1178 4863

L 1178 0

L 603 0

L 603 4863

z

" transform="scale(0.015625)"/>

     </defs>

     <use xlink:href="#DejaVuSans-4a"/>

     <use xlink:href="#DejaVuSans-75" transform="translate(29.492188 0)"/>

     <use xlink:href="#DejaVuSans-6c" transform="translate(92.871094 0)"/>

    </g>

   </g>

   <g id="text_8">

    <!-- Aug -->

    <g style="fill: #fff700" transform="translate(615.766719 143.528375) scale(0.1 -0.1)">

     <defs>

      <path id="DejaVuSans-67" d="M 2906 1791

Q 2906 2416 2648 2759

Q 2391 3103 1925 3103

Q 1463 3103 1205 2759

Q 947 2416 947 1791

Q 947 1169 1205 825

Q 1463 481 1925 481

Q 2391 481 2648 825

Q 2906 1169 2906 1791

z

M 3481 434

Q 3481 -459 3084 -895

Q 2688 -1331 1869 -1331

Q 1566 -1331 1297 -1286

Q 1028 -1241 775 -1147

L 775 -588

Q 1028 -725 1275 -790

Q 1522 -856 1778 -856

Q 2344 -856 2625 -561

Q 2906 -266 2906 331

L 2906 616

Q 2728 306 2450 153

Q 2172 0 1784 0

Q 1141 0 747 490

Q 353 981 353 1791

Q 353 2603 747 3093

Q 1141 3584 1784 3584

Q 2172 3584 2450 3431

Q 2728 3278 2906 2969

L 2906 3500

L 3481 3500

L 3481 434

z

" transform="scale(0.015625)"/>

     </defs>

     <use xlink:href="#DejaVuSans-41"/>

     <use xlink:href="#DejaVuSans-75" transform="translate(68.408203 0)"/>

     <use xlink:href="#DejaVuSans-67" transform="translate(131.787109 0)"/>

    </g>

   </g>

   <g id="text_9">

    <!-- Sep -->

    <g style="fill: #fff700" transform="translate(693.265 143.528375) scale(0.1 -0.1)">

     <defs>

      <path id="DejaVuSans-53" d="M 3425 4513

L 3425 3897

Q 3066 4069 2747 4153

Q 2428 4238 2131 4238

Q 1616 4238 1336 4038

Q 1056 3838 1056 3469

Q 1056 3159 1242 3001

Q 1428 2844 1947 2747

L 2328 2669

Q 3034 2534 3370 2195

Q 3706 1856 3706 1288

Q 3706 609 3251 259

Q 2797 -91 1919 -91

Q 1588 -91 1214 -16

Q 841 59 441 206

L 441 856

Q 825 641 1194 531

Q 1563 422 1919 422

Q 2459 422 2753 634

Q 3047 847 3047 1241

Q 3047 1584 2836 1778

Q 2625 1972 2144 2069

L 1759 2144

Q 1053 2284 737 2584

Q 422 2884 422 3419

Q 422 4038 858 4394

Q 1294 4750 2059 4750

Q 2388 4750 2728 4690

Q 3069 4631 3425 4513

z

" transform="scale(0.015625)"/>

     </defs>

     <use xlink:href="#DejaVuSans-53"/>

     <use xlink:href="#DejaVuSans-65" transform="translate(63.476562 0)"/>

     <use xlink:href="#DejaVuSans-70" transform="translate(125 0)"/>

    </g>

   </g>

   <g id="text_10">

    <!-- Oct -->

    <g style="fill: #fff700" transform="translate(790.494687 143.528375) scale(0.1 -0.1)">

     <defs>

      <path id="DejaVuSans-4f" d="M 2522 4238

Q 1834 4238 1429 3725

Q 1025 3213 1025 2328

Q 1025 1447 1429 934

Q 1834 422 2522 422

Q 3209 422 3611 934

Q 4013 1447 4013 2328

Q 4013 3213 3611 3725

Q 3209 4238 2522 4238

z

M 2522 4750

Q 3503 4750 4090 4092

Q 4678 3434 4678 2328

Q 4678 1225 4090 567

Q 3503 -91 2522 -91

Q 1538 -91 948 565

Q 359 1222 359 2328

Q 359 3434 948 4092

Q 1538 4750 2522 4750

z

" transform="scale(0.015625)"/>

      <path id="DejaVuSans-63" d="M 3122 3366

L 3122 2828

Q 2878 2963 2633 3030

Q 2388 3097 2138 3097

Q 1578 3097 1268 2742

Q 959 2388 959 1747

Q 959 1106 1268 751

Q 1578 397 2138 397

Q 2388 397 2633 464

Q 2878 531 3122 666

L 3122 134

Q 2881 22 2623 -34

Q 2366 -91 2075 -91

Q 1284 -91 818 406

Q 353 903 353 1747

Q 353 2603 823 3093

Q 1294 3584 2113 3584

Q 2378 3584 2631 3529

Q 2884 3475 3122 3366

z

" transform="scale(0.015625)"/>

      <path id="DejaVuSans-74" d="M 1172 4494

L 1172 3500

L 2356 3500

L 2356 3053

L 1172 3053

L 1172 1153

Q 1172 725 1289 603

Q 1406 481 1766 481

L 2356 481

L 2356 0

L 1766 0

Q 1100 0 847 248

Q 594 497 594 1153

L 594 3053

L 172 3053

L 172 3500

L 594 3500

L 594 4494

L 1172 4494

z

" transform="scale(0.015625)"/>

     </defs>

     <use xlink:href="#DejaVuSans-4f"/>

     <use xlink:href="#DejaVuSans-63" transform="translate(78.710938 0)"/>

     <use xlink:href="#DejaVuSans-74" transform="translate(133.691406 0)"/>

    </g>

   </g>

   <g id="text_11">

    <!-- Nov -->

    <g style="fill: #fff700" transform="translate(885.830625 143.528375) scale(0.1 -0.1)">

     <defs>

      <path id="DejaVuSans-4e" d="M 628 4666

L 1478 4666

L 3547 763

L 3547 4666

L 4159 4666

L 4159 0

L 3309 0

L 1241 3903

L 1241 0

L 628 0

L 628 4666

z

" transform="scale(0.015625)"/>

      <path id="DejaVuSans-6f" d="M 1959 3097

Q 1497 3097 1228 2736

Q 959 2375 959 1747

Q 959 1119 1226 758

Q 1494 397 1959 397

Q 2419 397 2687 759

Q 2956 1122 2956 1747

Q 2956 2369 2687 2733

Q 2419 3097 1959 3097

z

M 1959 3584

Q 2709 3584 3137 3096

Q 3566 2609 3566 1747

Q 3566 888 3137 398

Q 2709 -91 1959 -91

Q 1206 -91 779 398

Q 353 888 353 1747

Q 353 2609 779 3096

Q 1206 3584 1959 3584

z

" transform="scale(0.015625)"/>

      <path id="DejaVuSans-76" d="M 191 3500

L 800 3500

L 1894 563

L 2988 3500

L 3597 3500

L 2284 0

L 1503 0

L 191 3500

z

" transform="scale(0.015625)"/>

     </defs>

     <use xlink:href="#DejaVuSans-4e"/>

     <use xlink:href="#DejaVuSans-6f" transform="translate(74.804688 0)"/>

     <use xlink:href="#DejaVuSans-76" transform="translate(135.986328 0)"/>

    </g>

   </g>

   <g id="text_12">

    <!-- Dec -->

    <g style="fill: #fff700" transform="translate(943.784219 143.528375) scale(0.1 -0.1)">

     <defs>

      <path id="DejaVuSans-44" d="M 1259 4147

L 1259 519

L 2022 519

Q 2988 519 3436 956

Q 3884 1394 3884 2338

Q 3884 3275 3436 3711

Q 2988 4147 2022 4147

L 1259 4147

z

M 628 4666

L 1925 4666

Q 3281 4666 3915 4102

Q 4550 3538 4550 2338

Q 4550 1131 3912 565

Q 3275 0 1925 0

L 628 0

L 628 4666

z

" transform="scale(0.015625)"/>

     </defs>

     <use xlink:href="#DejaVuSans-44"/>

     <use xlink:href="#DejaVuSans-65" transform="translate(77.001953 0)"/>

     <use xlink:href="#DejaVuSans-63" transform="translate(138.525391 0)"/>

    </g>

   </g>

   <g id="text_13">

    <!-- Mon -->

    <g style="fill: #fff700" transform="translate(6.7068 160.889375) scale(0.1 -0.1)">

     <use xlink:href="#DejaVuSans-4d"/>

     <use xlink:href="#DejaVuSans-6f" transform="translate(86.279297 0)"/>

     <use xlink:href="#DejaVuSans-6e" transform="translate(147.460938 0)"/>

    </g>

   </g>

   <g id="text_14">

    <!-- Tue -->

    <g style="fill: #fff700" transform="translate(6.7068 180.179375) scale(0.1 -0.1)">

     <defs>

      <path id="DejaVuSans-54" d="M -19 4666

L 3928 4666

L 3928 4134

L 2272 4134

L 2272 0

L 1638 0

L 1638 4134

L -19 4134

L -19 4666

z

" transform="scale(0.015625)"/>

     </defs>

     <use xlink:href="#DejaVuSans-54"/>

     <use xlink:href="#DejaVuSans-75" transform="translate(45.958984 0)"/>

     <use xlink:href="#DejaVuSans-65" transform="translate(109.337891 0)"/>

    </g>

   </g>

   <g id="text_15">

    <!-- Wed -->

    <g style="fill: #fff700" transform="translate(6.7068 199.469375) scale(0.1 -0.1)">

     <defs>

      <path id="DejaVuSans-57" d="M 213 4666

L 850 4666

L 1831 722

L 2809 4666

L 3519 4666

L 4500 722

L 5478 4666

L 6119 4666

L 4947 0

L 4153 0

L 3169 4050

L 2175 0

L 1381 0

L 213 4666

z

" transform="scale(0.015625)"/>

      <path id="DejaVuSans-64" d="M 2906 2969

L 2906 4863

L 3481 4863

L 3481 0

L 2906 0

L 2906 525

Q 2725 213 2448 61

Q 2172 -91 1784 -91

Q 1150 -91 751 415

Q 353 922 353 1747

Q 353 2572 751 3078

Q 1150 3584 1784 3584

Q 2172 3584 2448 3432

Q 2725 3281 2906 2969

z

M 947 1747

Q 947 1113 1208 752

Q 1469 391 1925 391

Q 2381 391 2643 752

Q 2906 1113 2906 1747

Q 2906 2381 2643 2742

Q 2381 3103 1925 3103

Q 1469 3103 1208 2742

Q 947 2381 947 1747

z

" transform="scale(0.015625)"/>

     </defs>

     <use xlink:href="#DejaVuSans-57"/>

     <use xlink:href="#DejaVuSans-65" transform="translate(93.001953 0)"/>

     <use xlink:href="#DejaVuSans-64" transform="translate(154.525391 0)"/>

    </g>

   </g>

   <g id="text_16">

    <!-- Thu -->

    <g style="fill: #fff700" transform="translate(6.7068 218.759375) scale(0.1 -0.1)">

     <defs>

      <path id="DejaVuSans-68" d="M 3513 2113

L 3513 0

L 2938 0

L 2938 2094

Q 2938 2591 2744 2837

Q 2550 3084 2163 3084

Q 1697 3084 1428 2787

Q 1159 2491 1159 1978

L 1159 0

L 581 0

L 581 4863

L 1159 4863

L 1159 2956

Q 1366 3272 1645 3428

Q 1925 3584 2291 3584

Q 2894 3584 3203 3211

Q 3513 2838 3513 2113

z

" transform="scale(0.015625)"/>

     </defs>

     <use xlink:href="#DejaVuSans-54"/>

     <use xlink:href="#DejaVuSans-68" transform="translate(61.083984 0)"/>

     <use xlink:href="#DejaVuSans-75" transform="translate(124.462891 0)"/>

    </g>

   </g>

   <g id="text_17">

    <!-- Fri -->

    <g style="fill: #fff700" transform="translate(6.7068 238.049375) scale(0.1 -0.1)">

     <defs>

      <path id="DejaVuSans-69" d="M 603 3500

L 1178 3500

L 1178 0

L 603 0

L 603 3500

z

M 603 4863

L 1178 4863

L 1178 4134

L 603 4134

L 603 4863

z

" transform="scale(0.015625)"/>

     </defs>

     <use xlink:href="#DejaVuSans-46"/>

     <use xlink:href="#DejaVuSans-72" transform="translate(50.269531 0)"/>

     <use xlink:href="#DejaVuSans-69" transform="translate(91.382812 0)"/>

    </g>

   </g>

   <g id="text_18">

    <!-- Sat -->

    <g style="fill: #fff700" transform="translate(6.7068 257.339375) scale(0.1 -0.1)">

     <use xlink:href="#DejaVuSans-53"/>

     <use xlink:href="#DejaVuSans-61" transform="translate(63.476562 0)"/>

     <use xlink:href="#DejaVuSans-74" transform="translate(124.755859 0)"/>

    </g>

   </g>

   <g id="text_19">

    <!-- Sun -->

    <g style="fill: #fff700" transform="translate(6.7068 276.629375) scale(0.1 -0.1)">

     <use xlink:href="#DejaVuSans-53"/>

     <use xlink:href="#DejaVuSans-75" transform="translate(63.476562 0)"/>

     <use xlink:href="#DejaVuSans-6e" transform="translate(126.855469 0)"/>

    </g>

   </g>

  </g>

 </g>

 <defs>

  <clipPath id="pcf9522003d">

   <rect x="27.54" y="138.84" width="1041.66" height="154.32"/>

  </clipPath>

 </defs>

</svg>
<text
       xml:space="preserve"
       id="text2"
       style="font-size:37.3333px;text-align:start;writing-mode:lr-tb;direction:ltr;white-space:pre;shape-inside:url(#rect3);display:inline;fill:#fff700;stroke:#ff0808;stroke-width:1.034;stroke-opacity:0" /><text
       xml:space="preserve"
       id="text12"
       style="font-size:37.3333px;text-align:start;writing-mode:lr-tb;direction:ltr;white-space:pre;shape-inside:url(#rect12);display:inline;fill:#fff700;stroke:#ff0808;stroke-width:1.034;stroke-opacity:0"
       transform="matrix(0.99934752,0,0,1,0.02691582,0)"
       x="507.49045"
       y="0" /><text
       xml:space="preserve"
       style="font-size:32px;text-align:center;writing-mode:lr-tb;direction:ltr;text-anchor:middle;fill:#fff700;stroke:#ff0808;stroke-width:1.034;stroke-opacity:0"
       x="540.03003"
       y="254.09245"
       id="text17"><tspan
         sodipodi:role="line"
         id="tspan17"
         x="540.03003"
         y="254.09245"
         style="font-size:32px;fill:#fff700">Artists: 14, Venues: 5, Cities: 3, Countries: 2</tspan></text><text
       xml:space="preserve"
       style="font-size:13.3333px;text-align:center;writing-mode:lr-tb;direction:ltr;text-anchor:middle;fill:#fff700;stroke:#ff0808;stroke-width:1.034;stroke-opacity:0"
       x="540.03003"
       y="1308.1888"
       id="text17-6"><tspan
         sodipodi:role="line"
         id="tspan17-5"
         x="540.03003"
         y="1308.1888"
         style="font-size:13.3333px;fill:#fff700">Sets per day. Higher intensity means more sets.</tspan></text></g><g
     inkscape:groupmode="layer"
     id="layer4"
     inkscape:label="Credits"
     style="display:inline"><text
       xml:space="preserve"
       style="font-style:italic;font-size:20px;font-family:sans-serif;-inkscape-font-specification:'sans-serif Italic';text-align:end;writing-mode:lr-tb;direction:ltr;text-anchor:end;fill:#000000;fill-opacity:0.381625;stroke:#ff0808;stroke-width:1.034;stroke-opacity:0"
       x="1070.6028"
       y="1338.5188"
       id="text14"><tspan
         sodipodi:role="line"
         id="tspan14"
         x="1070.6028"
         y="1338.5188"
         dx="0 0 0 0 0 0 0 0 0 0 0 0 0 0 0 0 0 0 0 0 0 0 0 0 0 0 0 0 0 0 2.280273">Wrapped tool created by cyber__chris</tspan></text></g></svg>
